*
*
G04 PADS Layout (Build Number 2004.264.1) generated Gerber (RS-274-X) file*
G04 PC Version=2.1*
*
%IN "877A-2.PCB"*%
*
%MOIN*%
*
%FSLAX35Y35*%
*
*
*
*
G04 PC Standard Apertures*
*
*
G04 Thermal Relief Aperture macro.*
%AMTER*
1,1,$1,0,0*
1,0,$1-$2,0,0*
21,0,$3,$4,0,0,45*
21,0,$3,$4,0,0,135*
%
*
*
G04 Annular Aperture macro.*
%AMANN*
1,1,$1,0,0*
1,0,$2,0,0*
%
*
*
G04 Odd Aperture macro.*
%AMODD*
1,1,$1,0,0*
1,0,$1-0.005,0,0*
%
*
*
G04 PC Custom Aperture Macros*
*
*
*
*
*
*
G04 PC Aperture Table*
*
%ADD010C,0.01*%
%ADD022C,0.012*%
%ADD027C,0.03*%
%ADD032C,0.009*%
%ADD065C,0.062*%
%ADD078C,0.175*%
*
*
*
*
G04 PC Custom Flashes*
G04 Layer Name 877A-2.PCB - flashes*
%LPD*%
*
*
G04 PC Circuitry*
G04 Layer Name 877A-2.PCB - circuitry*
%LPD*%
*
G54D10*
G01X291050Y245500D02*
G75*
G03X291050I-10450D01*
G01X197800Y252000D02*
G03X197800I-3200D01*
G01X131050Y245500D02*
G03X131050I-10450D01*
G01X138274Y280500D02*
G03X138274I-4800D01*
G01X295600Y156928D02*
Y340500D01*
X112028*
X105600Y334071D02*
G03X112028Y340499I5000J1429D01*
G01X105600Y334071D02*
Y150500D01*
X154309*
Y156418*
X154809Y156918D02*
G03X154309Y156418I0J-499D01*
G01X154809Y156918D02*
X166050D01*
X166550Y156418D02*
G03X166050Y156918I-500J0D01*
G01X166550Y156418D02*
Y150500D01*
X289171*
X295599Y156928D02*
G03X289171Y150500I-4999J-1428D01*
G01X291050Y245500D02*
G03X291050I-10450D01*
G01X197800Y252000D02*
G03X197800I-3200D01*
G01X131050Y245500D02*
G03X131050I-10450D01*
G01X138274Y280500D02*
G03X138274I-4800D01*
G01X112344Y340398D02*
X295600D01*
X113924Y339498D02*
X295600D01*
X114775Y338598D02*
X295600D01*
X115312Y337698D02*
X295600D01*
X115635Y336798D02*
X295600D01*
X115784Y335898D02*
X295600D01*
X115775Y334998D02*
X295600D01*
X115607Y334098D02*
X295600D01*
X115263Y333198D02*
X295600D01*
X114697Y332298D02*
X295600D01*
X113796Y331398D02*
X295600D01*
X112023Y330498D02*
X295600D01*
X105600Y329598D02*
X295600D01*
X105600Y328698D02*
X295600D01*
X105600Y327798D02*
X295600D01*
X105600Y326898D02*
X295600D01*
X105600Y325998D02*
X295600D01*
X105600Y325098D02*
X295600D01*
X105600Y324198D02*
X295600D01*
X105600Y323298D02*
X295600D01*
X105600Y322398D02*
X295600D01*
X105600Y321498D02*
X295600D01*
X105600Y320598D02*
X295600D01*
X105600Y319698D02*
X295600D01*
X105600Y318798D02*
X295600D01*
X105600Y317898D02*
X295600D01*
X105600Y316998D02*
X295600D01*
X105600Y316098D02*
X295600D01*
X105600Y315198D02*
X295600D01*
X105600Y314298D02*
X295600D01*
X105600Y313398D02*
X295600D01*
X105600Y312498D02*
X295600D01*
X105600Y311598D02*
X295600D01*
X105600Y310698D02*
X295600D01*
X105600Y309798D02*
X295600D01*
X105600Y308898D02*
X295600D01*
X105600Y307998D02*
X295600D01*
X105600Y307098D02*
X295600D01*
X105600Y306198D02*
X295600D01*
X105600Y305298D02*
X295600D01*
X105600Y304398D02*
X295600D01*
X105600Y303498D02*
X295600D01*
X105600Y302598D02*
X295600D01*
X105600Y301698D02*
X295600D01*
X105600Y300798D02*
X295600D01*
X105600Y299898D02*
X295600D01*
X105600Y298998D02*
X295600D01*
X105600Y298098D02*
X295600D01*
X105600Y297198D02*
X295600D01*
X105600Y296298D02*
X295600D01*
X105600Y295398D02*
X295600D01*
X105600Y294498D02*
X295600D01*
X105600Y293598D02*
X295600D01*
X105600Y292698D02*
X295600D01*
X105600Y291798D02*
X295600D01*
X105600Y290898D02*
X295600D01*
X105600Y289998D02*
X295600D01*
X105600Y289098D02*
X295600D01*
X105600Y288198D02*
X295600D01*
X105600Y287298D02*
X295600D01*
X105600Y286398D02*
X295600D01*
X105600Y285498D02*
X295600D01*
X135972Y284598D02*
X295600D01*
X137052Y283698D02*
X295600D01*
X137687Y282798D02*
X295600D01*
X138065Y281898D02*
X295600D01*
X138248Y280998D02*
X295600D01*
X138257Y280098D02*
X295600D01*
X138094Y279198D02*
X295600D01*
X137739Y278298D02*
X295600D01*
X137137Y277398D02*
X295600D01*
X136125Y276498D02*
X295600D01*
X105600Y275598D02*
X295600D01*
X105600Y274698D02*
X295600D01*
X105600Y273798D02*
X295600D01*
X105600Y272898D02*
X295600D01*
X105600Y271998D02*
X295600D01*
X105600Y271098D02*
X295600D01*
X105600Y270198D02*
X295600D01*
X105600Y269298D02*
X295600D01*
X105600Y268398D02*
X295600D01*
X105600Y267498D02*
X295600D01*
X105600Y266598D02*
X295600D01*
X105600Y265698D02*
X295600D01*
X105600Y264798D02*
X295600D01*
X105600Y263898D02*
X295600D01*
X105600Y262998D02*
X295600D01*
X105600Y262098D02*
X295600D01*
X105600Y261198D02*
X295600D01*
X105600Y260298D02*
X295600D01*
X105600Y259398D02*
X295600D01*
X105600Y258498D02*
X295600D01*
X105600Y257598D02*
X295600D01*
X105600Y256698D02*
X295600D01*
X282371Y255798D02*
X295600D01*
X285168Y254898D02*
X295600D01*
X286680Y253998D02*
X295600D01*
X287773Y253098D02*
X295600D01*
X288620Y252198D02*
X295600D01*
X289293Y251298D02*
X295600D01*
X289830Y250398D02*
X295600D01*
X290254Y249498D02*
X295600D01*
X290580Y248598D02*
X295600D01*
X290816Y247698D02*
X295600D01*
X290969Y246798D02*
X295600D01*
X291042Y245898D02*
X295600D01*
X291037Y244998D02*
X295600D01*
X290955Y244098D02*
X295600D01*
X290793Y243198D02*
X295600D01*
X290547Y242298D02*
X295600D01*
X290211Y241398D02*
X295600D01*
X289775Y240498D02*
X295600D01*
X289224Y239598D02*
X295600D01*
X288533Y238698D02*
X295600D01*
X287663Y237798D02*
X295600D01*
X286534Y236898D02*
X295600D01*
X284950Y235998D02*
X295600D01*
X281607Y235098D02*
X295600D01*
X105600Y234198D02*
X295600D01*
X105600Y233298D02*
X295600D01*
X105600Y232398D02*
X295600D01*
X105600Y231498D02*
X295600D01*
X105600Y230598D02*
X295600D01*
X105600Y229698D02*
X295600D01*
X105600Y228798D02*
X295600D01*
X105600Y227898D02*
X295600D01*
X105600Y226998D02*
X295600D01*
X105600Y226098D02*
X295600D01*
X105600Y225198D02*
X295600D01*
X105600Y224298D02*
X295600D01*
X105600Y223398D02*
X295600D01*
X105600Y222498D02*
X295600D01*
X105600Y221598D02*
X295600D01*
X105600Y220698D02*
X295600D01*
X105600Y219798D02*
X295600D01*
X105600Y218898D02*
X295600D01*
X105600Y217998D02*
X295600D01*
X105600Y217098D02*
X295600D01*
X105600Y216198D02*
X295600D01*
X105600Y215298D02*
X295600D01*
X105600Y214398D02*
X295600D01*
X105600Y213498D02*
X295600D01*
X105600Y212598D02*
X295600D01*
X105600Y211698D02*
X295600D01*
X105600Y210798D02*
X295600D01*
X105600Y209898D02*
X295600D01*
X105600Y208998D02*
X295600D01*
X105600Y208098D02*
X295600D01*
X105600Y207198D02*
X295600D01*
X105600Y206298D02*
X295600D01*
X105600Y205398D02*
X295600D01*
X105600Y204498D02*
X295600D01*
X105600Y203598D02*
X295600D01*
X105600Y202698D02*
X295600D01*
X105600Y201798D02*
X295600D01*
X105600Y200898D02*
X295600D01*
X105600Y199998D02*
X295600D01*
X105600Y199098D02*
X295600D01*
X105600Y198198D02*
X295600D01*
X105600Y197298D02*
X295600D01*
X105600Y196398D02*
X295600D01*
X105600Y195498D02*
X295600D01*
X105600Y194598D02*
X295600D01*
X105600Y193698D02*
X295600D01*
X105600Y192798D02*
X295600D01*
X105600Y191898D02*
X295600D01*
X105600Y190998D02*
X295600D01*
X105600Y190098D02*
X295600D01*
X105600Y189198D02*
X295600D01*
X105600Y188298D02*
X295600D01*
X105600Y187398D02*
X295600D01*
X105600Y186498D02*
X295600D01*
X105600Y185598D02*
X295600D01*
X105600Y184698D02*
X295600D01*
X105600Y183798D02*
X295600D01*
X105600Y182898D02*
X295600D01*
X105600Y181998D02*
X295600D01*
X105600Y181098D02*
X295600D01*
X105600Y180198D02*
X295600D01*
X105600Y179298D02*
X295600D01*
X105600Y178398D02*
X295600D01*
X105600Y177498D02*
X295600D01*
X105600Y176598D02*
X295600D01*
X105600Y175698D02*
X295600D01*
X105600Y174798D02*
X295600D01*
X105600Y173898D02*
X295600D01*
X105600Y172998D02*
X295600D01*
X105600Y172098D02*
X295600D01*
X105600Y171198D02*
X295600D01*
X105600Y170298D02*
X295600D01*
X105600Y169398D02*
X295600D01*
X105600Y168498D02*
X295600D01*
X105600Y167598D02*
X295600D01*
X105600Y166698D02*
X295600D01*
X105600Y165798D02*
X295600D01*
X105600Y164898D02*
X295600D01*
X105600Y163998D02*
X295600D01*
X105600Y163098D02*
X295600D01*
X105600Y162198D02*
X295600D01*
X105600Y161298D02*
X295600D01*
X292344Y160398D02*
X295600D01*
X293924Y159498D02*
X295600D01*
X294775Y158598D02*
X295600D01*
X295312Y157698D02*
X295600D01*
X105600Y160398D02*
X288855D01*
X166550Y151398D02*
X287403D01*
X105600Y159498D02*
X287275D01*
X166550Y152298D02*
X286502D01*
X105600Y158598D02*
X286424D01*
X166550Y153198D02*
X285936D01*
X105600Y157698D02*
X285887D01*
X166550Y154098D02*
X285592D01*
X166375Y156798D02*
X285564D01*
X166550Y154998D02*
X285424D01*
X166550Y155898D02*
X285415D01*
X121607Y235098D02*
X279592D01*
X122371Y255798D02*
X278828D01*
X124950Y235998D02*
X276249D01*
X195955Y254898D02*
X276031D01*
X126534Y236898D02*
X274665D01*
X197099Y253998D02*
X274519D01*
X127663Y237798D02*
X273536D01*
X197605Y253098D02*
X273426D01*
X128533Y238698D02*
X272666D01*
X197793Y252198D02*
X272579D01*
X129224Y239598D02*
X271975D01*
X197722Y251298D02*
X271906D01*
X129775Y240498D02*
X271424D01*
X197370Y250398D02*
X271369D01*
X130211Y241398D02*
X270988D01*
X196595Y249498D02*
X270945D01*
X130547Y242298D02*
X270652D01*
X130580Y248598D02*
X270619D01*
X130793Y243198D02*
X270406D01*
X130816Y247698D02*
X270383D01*
X130955Y244098D02*
X270244D01*
X130969Y246798D02*
X270230D01*
X131037Y244998D02*
X270162D01*
X131042Y245898D02*
X270157D01*
X125168Y254898D02*
X193244D01*
X130254Y249498D02*
X192604D01*
X126680Y253998D02*
X192100D01*
X129830Y250398D02*
X191829D01*
X127773Y253098D02*
X191594D01*
X129293Y251298D02*
X191477D01*
X128620Y252198D02*
X191406D01*
X105600Y156798D02*
X154484D01*
X105600Y155898D02*
X154309D01*
X105600Y154998D02*
X154309D01*
X105600Y154098D02*
X154309D01*
X105600Y153198D02*
X154309D01*
X105600Y152298D02*
X154309D01*
X105600Y151398D02*
X154309D01*
X105600Y284598D02*
X130975D01*
X105600Y276498D02*
X130822D01*
X105600Y283698D02*
X129895D01*
X105600Y277398D02*
X129810D01*
X105600Y282798D02*
X129260D01*
X105600Y278298D02*
X129208D01*
X105600Y281898D02*
X128882D01*
X105600Y279198D02*
X128853D01*
X105600Y280998D02*
X128699D01*
X105600Y280098D02*
X128690D01*
X105600Y235098D02*
X119592D01*
X105600Y255798D02*
X118828D01*
X105600Y235998D02*
X116249D01*
X105600Y254898D02*
X116031D01*
X105600Y236898D02*
X114665D01*
X105600Y253998D02*
X114519D01*
X105600Y237798D02*
X113536D01*
X105600Y253098D02*
X113426D01*
X105600Y238698D02*
X112666D01*
X105600Y252198D02*
X112579D01*
X105600Y239598D02*
X111975D01*
X105600Y251298D02*
X111906D01*
X105600Y240498D02*
X111424D01*
X105600Y250398D02*
X111369D01*
X105600Y241398D02*
X110988D01*
X105600Y249498D02*
X110945D01*
X105600Y242298D02*
X110652D01*
X105600Y248598D02*
X110619D01*
X105600Y243198D02*
X110406D01*
X105600Y247698D02*
X110383D01*
X105600Y244098D02*
X110244D01*
X105600Y246798D02*
X110230D01*
X105600Y244998D02*
X110162D01*
X105600Y245898D02*
X110157D01*
X105600Y330498D02*
X109176D01*
X105600Y331398D02*
X107403D01*
X105600Y332298D02*
X106502D01*
X105600Y333198D02*
X105936D01*
X100600Y345500D02*
X300600D01*
Y145500*
X100600*
Y345500*
X243100Y115750D02*
Y110500D01*
X240918*
X238918Y115750D02*
X236918D01*
X238009Y113750*
X237463*
X237463D02*
X237100Y113500D01*
X236918Y113250*
X236736Y112500*
Y112000*
X236918Y111250*
X237281Y110750*
X237281D02*
X237827Y110500D01*
X238372*
X238372D02*
X238918Y110750D01*
X239100Y111000*
X239281Y111500*
X235100Y112750D02*
X231827D01*
X227463Y114500D02*
X227645Y115000D01*
X228009Y115500*
X228372Y115750*
X228372D02*
X229100D01*
X229463Y115500*
X229463D02*
X229827Y115000D01*
X230009Y114500*
X230190Y113750*
X230190D02*
Y112500D01*
X230190D02*
X230009Y111750D01*
X229827Y111250*
X229463Y110750*
X229463D02*
X229100Y110500D01*
X228372*
X228372D02*
X228009Y110750D01*
X227645Y111250*
X227463Y111750*
X227463D02*
Y112500D01*
X228372D02*
X227463D01*
X225827Y115750D02*
Y110500D01*
Y115750D02*
X223281Y110500D01*
Y115750D02*
Y110500D01*
X221645Y115750D02*
Y110500D01*
Y115750D02*
X220372D01*
X220372D02*
X219827Y115500D01*
X219463Y115000*
X219463D02*
X219281Y114500D01*
X219281D02*
X219100Y113750D01*
Y112500*
X219281Y111750*
X219281D02*
X219463Y111250D01*
X219463D02*
X219827Y110750D01*
X220372Y110500*
X220372D02*
X221645D01*
X213281Y115750D02*
Y110500D01*
X213281D02*
X211100D01*
X208009Y115750D02*
X209463Y110500D01*
X208009Y115750D02*
X206554Y110500D01*
X208918Y112250D02*
X207100D01*
X204918Y115750D02*
X203463Y113250D01*
X203463D02*
Y110500D01*
X202009Y115750D02*
X203463Y113250D01*
X200372Y115750D02*
Y110500D01*
Y115750D02*
X198009D01*
X200372Y113250D02*
X198918D01*
X200372Y110500D02*
X198009D01*
X196372Y115750D02*
Y110500D01*
Y115750D02*
X194736D01*
X194190Y115500*
X194190D02*
X194009Y115250D01*
X193827Y114750*
Y114250*
X194009Y113750*
X194190Y113500*
X194190D02*
X194736Y113250D01*
X196372*
X195100D02*
X193827Y110500D01*
X100600Y120500D02*
X246600D01*
X100600Y116406D02*
Y110500D01*
Y116406D02*
X102031D01*
X102031D02*
X102645Y116125D01*
X103054Y115562*
X103054D02*
X103259Y115000D01*
X103463Y114156*
X103463D02*
Y112750D01*
X103463D02*
X103259Y111906D01*
X103054Y111343*
X103054D02*
X102645Y110781D01*
X102031Y110500*
X102031D02*
X100600D01*
X108372Y115000D02*
X108168Y115562D01*
X108168D02*
X107759Y116125D01*
X107350Y116406*
X106531*
X106531D02*
X106122Y116125D01*
X106122D02*
X105713Y115562D01*
X105713D02*
X105509Y115000D01*
X105304Y114156*
X105304D02*
Y112750D01*
X105304D02*
X105509Y111906D01*
X105713Y111343*
X105713D02*
X106122Y110781D01*
X106122D02*
X106531Y110500D01*
X106531D02*
X107350D01*
X107759Y110781*
X108168Y111343*
X108168D02*
X108372Y111906D01*
X111236Y116406D02*
X110622Y116125D01*
X110622D02*
X110418Y115562D01*
X110418D02*
Y115000D01*
X110622Y114437*
X110622D02*
X111031Y114156D01*
X111031D02*
X111850Y113875D01*
X112463Y113593*
X112463D02*
X112872Y113031D01*
X112872D02*
X113077Y112468D01*
X113077D02*
Y111625D01*
X112872Y111062*
X112872D02*
X112668Y110781D01*
X112054Y110500*
X112054D02*
X111236D01*
X110622Y110781*
X110622D02*
X110418Y111062D01*
X110418D02*
X110213Y111625D01*
X110213D02*
Y112468D01*
X110213D02*
X110418Y113031D01*
X110827Y113593*
X110827D02*
X111440Y113875D01*
X111440D02*
X112259Y114156D01*
X112668Y114437*
X112668D02*
X112872Y115000D01*
X112872D02*
Y115562D01*
X112872D02*
X112668Y116125D01*
X112054Y116406*
X112054D02*
X111236D01*
X117781D02*
X115736Y110500D01*
X114918Y116406D02*
X117781D01*
X122486D02*
X120440Y110500D01*
X119622Y116406D02*
X122486D01*
X125963D02*
X124327Y110500D01*
X125963Y116406D02*
X127600Y110500D01*
X124940Y112468D02*
X126986D01*
X134145Y116406D02*
Y110500D01*
Y116406D02*
X135986D01*
X136600Y116125*
X136804Y115843*
X136804D02*
X137009Y115281D01*
Y114718*
X137009D02*
X136804Y114156D01*
X136804D02*
X136600Y113875D01*
X135986Y113593*
X135986D02*
X134145D01*
X135577D02*
X137009Y110500D01*
X138850Y116406D02*
Y110500D01*
Y116406D02*
X141509D01*
X138850Y113593D02*
X140486D01*
X138850Y110500D02*
X141509D01*
X143350Y116406D02*
X144986Y110500D01*
X146622Y116406D02*
X144986Y110500D01*
X153372Y115000D02*
Y115281D01*
X153372D02*
X153577Y115843D01*
X153577D02*
X153781Y116125D01*
X153781D02*
X154190Y116406D01*
X154190D02*
X155009D01*
X155418Y116125*
X155622Y115843*
X155622D02*
X155827Y115281D01*
Y114718*
X155827D02*
X155622Y114156D01*
X155622D02*
X155213Y113312D01*
X155213D02*
X153168Y110500D01*
X156031*
X101827Y106406D02*
X101213Y106125D01*
X101213D02*
X100804Y105281D01*
X100804D02*
X100600Y103875D01*
Y103031*
X100804Y101625*
X100804D02*
X101213Y100781D01*
X101213D02*
X101827Y100500D01*
X102236*
X102850Y100781*
X103259Y101625*
X103463Y103031*
X103463D02*
Y103875D01*
X103463D02*
X103259Y105281D01*
X102850Y106125*
X102236Y106406*
X101827*
X106327D02*
X105713Y106125D01*
X105713D02*
X105509Y105562D01*
X105509D02*
Y105000D01*
X105713Y104437*
X105713D02*
X106122Y104156D01*
X106122D02*
X106940Y103875D01*
X106940D02*
X107554Y103593D01*
X107554D02*
X107963Y103031D01*
X107963D02*
X108168Y102468D01*
X108168D02*
Y101625D01*
X107963Y101062*
X107963D02*
X107759Y100781D01*
X107145Y100500*
X106327*
X105713Y100781*
X105713D02*
X105509Y101062D01*
X105509D02*
X105304Y101625D01*
X105304D02*
Y102468D01*
X105304D02*
X105509Y103031D01*
X105918Y103593*
X105918D02*
X106531Y103875D01*
X106531D02*
X107350Y104156D01*
X107759Y104437*
X107759D02*
X107963Y105000D01*
X107963D02*
Y105562D01*
X107963D02*
X107759Y106125D01*
X107145Y106406*
X106327*
X113690Y107531D02*
X110009Y98531D01*
X115531Y105281D02*
X115940Y105562D01*
X115940D02*
X116554Y106406D01*
X116554D02*
Y100500D01*
X121054Y106406D02*
X119009D01*
X118804Y103875*
X118804D02*
X119009Y104156D01*
X119622Y104437*
X119622D02*
X120236D01*
X120236D02*
X120850Y104156D01*
X121259Y103593*
X121259D02*
X121463Y102750D01*
X121463D02*
X121259Y102187D01*
X121259D02*
X121054Y101343D01*
X121054D02*
X120645Y100781D01*
X120031Y100500*
X120031D02*
X119418D01*
X118804Y100781*
X118804D02*
X118600Y101062D01*
X118600D02*
X118395Y101625D01*
X126986Y107531D02*
X123304Y98531D01*
X130054Y106406D02*
X129440Y106125D01*
X129440D02*
X129031Y105281D01*
X129031D02*
X128827Y103875D01*
Y103031*
X129031Y101625*
X129031D02*
X129440Y100781D01*
X129440D02*
X130054Y100500D01*
X130054D02*
X130463D01*
X130463D02*
X131077Y100781D01*
X131486Y101625*
X131690Y103031*
X131690D02*
Y103875D01*
X131690D02*
X131486Y105281D01*
X131077Y106125*
X130463Y106406*
X130463D02*
X130054D01*
X136190D02*
X134145D01*
X133940Y103875*
X133940D02*
X134145Y104156D01*
X134759Y104437*
X134759D02*
X135372D01*
X135372D02*
X135986Y104156D01*
X136395Y103593*
X136395D02*
X136600Y102750D01*
X136395Y102187*
X136395D02*
X136190Y101343D01*
X136190D02*
X135781Y100781D01*
X135781D02*
X135168Y100500D01*
X134554*
X134554D02*
X133940Y100781D01*
X133940D02*
X133736Y101062D01*
X133736D02*
X133531Y101625D01*
G54D22*
X100600Y129562D02*
Y123000D01*
X103327*
X105372Y129562D02*
Y123000D01*
X107418Y129562D02*
Y123000D01*
Y129562D02*
X110600Y123000D01*
Y129562D02*
Y123000D01*
X112645Y129562D02*
Y123000D01*
Y129562D02*
X115600D01*
X112645Y126437D02*
X114463D01*
X112645Y123000D02*
X115600D01*
X119463Y129562D02*
X117645Y123000D01*
X119463Y129562D02*
X121281Y123000D01*
X118327Y125187D02*
X120600D01*
X123327Y129562D02*
Y123000D01*
Y129562D02*
X125372D01*
X125372D02*
X126054Y129250D01*
X126054D02*
X126281Y128937D01*
X126281D02*
X126509Y128312D01*
X126509D02*
Y127687D01*
X126509D02*
X126281Y127062D01*
X126281D02*
X126054Y126750D01*
X126054D02*
X125372Y126437D01*
X125372D02*
X123327D01*
X124918D02*
X126509Y123000D01*
X135372Y129562D02*
Y123000D01*
X133781Y129562D02*
X136963D01*
X139009D02*
Y123000D01*
Y129562D02*
X141963D01*
X139009Y126437D02*
X140827D01*
X139009Y123000D02*
X141963D01*
X147418Y128000D02*
X147190Y128625D01*
X147190D02*
X146736Y129250D01*
X146281Y129562*
X146281D02*
X145372D01*
X145372D02*
X144918Y129250D01*
X144463Y128625*
X144463D02*
X144236Y128000D01*
X144009Y127062*
X144009D02*
Y125500D01*
X144236Y124562*
X144236D02*
X144463Y123937D01*
X144463D02*
X144918Y123312D01*
X144918D02*
X145372Y123000D01*
X145372D02*
X146281D01*
X146281D02*
X146736Y123312D01*
X146736D02*
X147190Y123937D01*
X147190D02*
X147418Y124562D01*
X149463Y129562D02*
Y123000D01*
X152645Y129562D02*
Y123000D01*
X149463Y126437D02*
X152645D01*
X154690Y129562D02*
Y123000D01*
Y129562D02*
X157872Y123000D01*
Y129562D02*
Y123000D01*
X161281Y129562D02*
X160827Y129250D01*
X160372Y128625*
X160372D02*
X160145Y128000D01*
X159918Y127062*
X159918D02*
Y125500D01*
X160145Y124562*
X160145D02*
X160372Y123937D01*
X160372D02*
X160827Y123312D01*
X160827D02*
X161281Y123000D01*
X161281D02*
X162190D01*
X162190D02*
X162645Y123312D01*
X162645D02*
X163100Y123937D01*
X163100D02*
X163327Y124562D01*
X163327D02*
X163554Y125500D01*
X163554D02*
Y127062D01*
X163554D02*
X163327Y128000D01*
X163100Y128625*
X162645Y129250*
X162190Y129562*
X162190D02*
X161281D01*
X165600D02*
Y123000D01*
X168327*
X171736Y129562D02*
X171281Y129250D01*
X171281D02*
X170827Y128625D01*
X170600Y128000*
X170372Y127062*
X170372D02*
Y125500D01*
X170372D02*
X170600Y124562D01*
X170600D02*
X170827Y123937D01*
X170827D02*
X171281Y123312D01*
X171281D02*
X171736Y123000D01*
X172645*
X173100Y123312*
X173100D02*
X173554Y123937D01*
X173554D02*
X173781Y124562D01*
X173781D02*
X174009Y125500D01*
Y127062*
X174009D02*
X173781Y128000D01*
X173781D02*
X173554Y128625D01*
X173554D02*
X173100Y129250D01*
X172645Y129562*
X172645D02*
X171736D01*
X179463Y128000D02*
X179236Y128625D01*
X178781Y129250*
X178781D02*
X178327Y129562D01*
X178327D02*
X177418D01*
X177418D02*
X176963Y129250D01*
X176963D02*
X176509Y128625D01*
X176281Y128000*
X176281D02*
X176054Y127062D01*
X176054D02*
Y125500D01*
X176054D02*
X176281Y124562D01*
X176281D02*
X176509Y123937D01*
X176509D02*
X176963Y123312D01*
X176963D02*
X177418Y123000D01*
X178327*
X178781Y123312*
X178781D02*
X179236Y123937D01*
X179236D02*
X179463Y124562D01*
X179463D02*
Y125500D01*
X178327D02*
X179463D01*
X181509Y129562D02*
X183327Y126437D01*
X183327D02*
Y123000D01*
X185145Y129562D02*
X183327Y126437D01*
X195827Y128000D02*
X195600Y128625D01*
X195145Y129250*
X194690Y129562*
X194690D02*
X193781D01*
X193781D02*
X193327Y129250D01*
X192872Y128625*
X192872D02*
X192645Y128000D01*
X192418Y127062*
X192418D02*
Y125500D01*
X192645Y124562*
X192645D02*
X192872Y123937D01*
X192872D02*
X193327Y123312D01*
X193327D02*
X193781Y123000D01*
X193781D02*
X194690D01*
X194690D02*
X195145Y123312D01*
X195145D02*
X195600Y123937D01*
X195600D02*
X195827Y124562D01*
X199236Y129562D02*
X198781Y129250D01*
X198781D02*
X198327Y128625D01*
X198100Y128000*
X197872Y127062*
X197872D02*
Y125500D01*
X197872D02*
X198100Y124562D01*
X198100D02*
X198327Y123937D01*
X198327D02*
X198781Y123312D01*
X198781D02*
X199236Y123000D01*
X200145*
X200600Y123312*
X200600D02*
X201054Y123937D01*
X201054D02*
X201281Y124562D01*
X201281D02*
X201509Y125500D01*
Y127062*
X201509D02*
X201281Y128000D01*
X201281D02*
X201054Y128625D01*
X201054D02*
X200600Y129250D01*
X200145Y129562*
X200145D02*
X199236D01*
X203554D02*
Y123000D01*
Y129562D02*
X205600D01*
X205600D02*
X206281Y129250D01*
X206281D02*
X206509Y128937D01*
X206509D02*
X206736Y128312D01*
X206736D02*
Y127687D01*
X206736D02*
X206509Y127062D01*
X206509D02*
X206281Y126750D01*
X206281D02*
X205600Y126437D01*
X205600D02*
X203554D01*
X205145D02*
X206736Y123000D01*
X208781Y129562D02*
Y123000D01*
Y129562D02*
X210827D01*
X210827D02*
X211509Y129250D01*
X211736Y128937*
X211736D02*
X211963Y128312D01*
X211963D02*
Y127375D01*
X211963D02*
X211736Y126750D01*
X211509Y126437*
X211509D02*
X210827Y126125D01*
X208781*
X215372Y129562D02*
X214918Y129250D01*
X214463Y128625*
X214463D02*
X214236Y128000D01*
X214009Y127062*
X214009D02*
Y125500D01*
X214236Y124562*
X214236D02*
X214463Y123937D01*
X214463D02*
X214918Y123312D01*
X214918D02*
X215372Y123000D01*
X215372D02*
X216281D01*
X216281D02*
X216736Y123312D01*
X216736D02*
X217190Y123937D01*
X217190D02*
X217418Y124562D01*
X217418D02*
X217645Y125500D01*
Y127062*
X217645D02*
X217418Y128000D01*
X217190Y128625*
X217190D02*
X216736Y129250D01*
X216281Y129562*
X216281D02*
X215372D01*
X219690D02*
Y123000D01*
Y129562D02*
X221736D01*
X221736D02*
X222418Y129250D01*
X222645Y128937*
X222645D02*
X222872Y128312D01*
X222872D02*
Y127687D01*
X222872D02*
X222645Y127062D01*
X222645D02*
X222418Y126750D01*
X221736Y126437*
X221736D02*
X219690D01*
X221281D02*
X222872Y123000D01*
X226736Y129562D02*
X224918Y123000D01*
X226736Y129562D02*
X228554Y123000D01*
X225600Y125187D02*
X227872D01*
X232190Y129562D02*
Y123000D01*
X230600Y129562D02*
X233781D01*
X235827D02*
Y123000D01*
X239236Y129562D02*
X238781Y129250D01*
X238781D02*
X238327Y128625D01*
X238100Y128000*
X237872Y127062*
X237872D02*
Y125500D01*
X237872D02*
X238100Y124562D01*
X238100D02*
X238327Y123937D01*
X238327D02*
X238781Y123312D01*
X238781D02*
X239236Y123000D01*
X240145*
X240600Y123312*
X240600D02*
X241054Y123937D01*
X241054D02*
X241281Y124562D01*
X241281D02*
X241509Y125500D01*
Y127062*
X241509D02*
X241281Y128000D01*
X241281D02*
X241054Y128625D01*
X241054D02*
X240600Y129250D01*
X240145Y129562*
X240145D02*
X239236D01*
X243554D02*
Y123000D01*
Y129562D02*
X246736Y123000D01*
Y129562D02*
Y123000D01*
G54D27*
X202100Y240500D03*
X203100Y250000D03*
G54D32*
X163213Y154000D02*
X163372Y154437D01*
X163372D02*
X163690Y154875D01*
X163690D02*
X164009Y155093D01*
X164009D02*
X164645D01*
X164645D02*
X164963Y154875D01*
X164963D02*
X165281Y154437D01*
X165281D02*
X165440Y154000D01*
X165440D02*
X165600Y153343D01*
X165600D02*
Y152250D01*
X165440Y151593*
X165440D02*
X165281Y151156D01*
X165281D02*
X164963Y150718D01*
X164963D02*
X164645Y150500D01*
X164009*
X163690Y150718*
X163690D02*
X163372Y151156D01*
X163372D02*
X163213Y151593D01*
X163213D02*
Y152250D01*
X164009D02*
X163213D01*
X161781Y155093D02*
Y150500D01*
Y155093D02*
X159554Y150500D01*
Y155093D02*
Y150500D01*
X158122Y155093D02*
Y150500D01*
Y155093D02*
X157009D01*
X157009D02*
X156531Y154875D01*
X156531D02*
X156213Y154437D01*
X156213D02*
X156054Y154000D01*
X156054D02*
X155895Y153343D01*
X155895D02*
Y152250D01*
X156054Y151593*
X156054D02*
X156213Y151156D01*
X156213D02*
X156531Y150718D01*
X156531D02*
X157009Y150500D01*
X158122*
G54D65*
X125600Y280500D03*
X117726D03*
G54D78*
X120600Y205500D03*
X280600D03*
G74*
X0Y0D02*
M02*
