*
*
G04 PADS Layout (Build Number 2004.264.1) generated Gerber (RS-274-X) file*
G04 PC Version=2.1*
*
%IN "877A-2.PCB"*%
*
%MOIN*%
*
%FSLAX35Y35*%
*
*
*
*
G04 PC Standard Apertures*
*
*
G04 Thermal Relief Aperture macro.*
%AMTER*
1,1,$1,0,0*
1,0,$1-$2,0,0*
21,0,$3,$4,0,0,45*
21,0,$3,$4,0,0,135*
%
*
*
G04 Annular Aperture macro.*
%AMANN*
1,1,$1,0,0*
1,0,$2,0,0*
%
*
*
G04 Odd Aperture macro.*
%AMODD*
1,1,$1,0,0*
1,0,$1-0.005,0,0*
%
*
*
G04 PC Custom Aperture Macros*
*
*
*
*
*
*
G04 PC Aperture Table*
*
%ADD010C,0.01*%
%ADD022C,0.012*%
%ADD053C,0.007*%
%ADD064R,0.062X0.062*%
%ADD065C,0.062*%
%ADD072C,0.023*%
%ADD078C,0.175*%
*
*
*
*
G04 PC Custom Flashes*
G04 Layer Name 877A-2.PCB - flashes*
%LPD*%
*
*
G04 PC Circuitry*
G04 Layer Name 877A-2.PCB - circuitry*
%LPD*%
*
G54D10*
G01X291050Y245500D02*
G75*
G03X291050I-10450D01*
G01X131050D02*
G03X131050I-10450D01*
G01X296100Y158632D02*
Y340500D01*
G03X295600Y341000I-500J0*
G01X113732*
G03X113466Y340076I0J-500*
G01X106023Y332633D02*
G03X113466Y340076I4577J2867D01*
G01X106023Y332633D02*
G03X105100Y332367I-423J-265D01*
G01X105100D02*
Y150500D01*
G03X105600Y150000I500J0*
G01X173568*
G03X174068Y150500I0J500*
G01Y154537*
X174568Y155037D02*
G03X174068Y154537I0J-499D01*
G01X174568Y155037D02*
X225450D01*
X225950Y154537D02*
G03X225450Y155037I-500J0D01*
G01X225950Y154537D02*
Y150500D01*
G03X226450Y150000I500J0*
G01X287467*
X287467D02*
G03X287733Y150923I0J500D01*
G01X295176Y158366D02*
G03X287733Y150923I-4576J-2866D01*
G01X295176Y158366D02*
G03X296099Y158632I424J266D01*
G01X291050Y245500D02*
G03X291050I-10450D01*
G01X131050D02*
G03X131050I-10450D01*
G01X191809Y251421D02*
G03X195178Y254790I2791J579D01*
G01X191809Y251421D02*
G03X191673Y251674I-489J-100D01*
G01X165293Y278053*
X165293D02*
G03X164940Y278199I-352J-353D01*
G01X164940D02*
X138774D01*
X138774D02*
G03X138274Y277699I0J-499D01*
G01X138274D02*
Y277400D01*
X136574Y275699D02*
G03X138274Y277400I0J1701D01*
G01X136574Y275699D02*
X130374D01*
X128673Y277400D02*
G03X130374Y275699I1701J0D01*
G01X128673Y277400D02*
Y283600D01*
X130374Y285300D02*
G03X128673Y283600I0J-1700D01*
G01X130374Y285300D02*
X136574D01*
X138274Y283600D02*
G03X136574Y285300I-1700J0D01*
G01X138274Y283600D02*
Y283300D01*
G03X138774Y282800I500J0*
G01X166100*
X167726Y282126D02*
G03X166100Y282800I-1626J-1626D01*
G01X167726Y282126D02*
X194925Y254926D01*
X194925D02*
G03X195178Y254790I354J354D01*
G01X113732Y339898D02*
X296100D01*
X114713Y338998D02*
X296100D01*
X115333Y338098D02*
X296100D01*
X115725Y337198D02*
X296100D01*
X115940Y336298D02*
X296100D01*
X115999Y335398D02*
X296100D01*
X115906Y334498D02*
X296100D01*
X115654Y333598D02*
X296100D01*
X115216Y332698D02*
X296100D01*
X114531Y331798D02*
X296100D01*
X113426Y330898D02*
X296100D01*
X105100Y329998D02*
X296100D01*
X105100Y329098D02*
X296100D01*
X105100Y328198D02*
X296100D01*
X105100Y327298D02*
X296100D01*
X105100Y326398D02*
X296100D01*
X105100Y325498D02*
X296100D01*
X105100Y324598D02*
X296100D01*
X105100Y323698D02*
X296100D01*
X105100Y322798D02*
X296100D01*
X105100Y321898D02*
X296100D01*
X105100Y320998D02*
X296100D01*
X105100Y320098D02*
X296100D01*
X105100Y319198D02*
X296100D01*
X105100Y318298D02*
X296100D01*
X105100Y317398D02*
X296100D01*
X105100Y316498D02*
X296100D01*
X105100Y315598D02*
X296100D01*
X105100Y314698D02*
X296100D01*
X105100Y313798D02*
X296100D01*
X105100Y312898D02*
X296100D01*
X105100Y311998D02*
X296100D01*
X105100Y311098D02*
X296100D01*
X105100Y310198D02*
X296100D01*
X105100Y309298D02*
X296100D01*
X105100Y308398D02*
X296100D01*
X105100Y307498D02*
X296100D01*
X105100Y306598D02*
X296100D01*
X105100Y305698D02*
X296100D01*
X105100Y304798D02*
X296100D01*
X105100Y303898D02*
X296100D01*
X105100Y302998D02*
X296100D01*
X105100Y302098D02*
X296100D01*
X105100Y301198D02*
X296100D01*
X105100Y300298D02*
X296100D01*
X105100Y299398D02*
X296100D01*
X105100Y298498D02*
X296100D01*
X105100Y297598D02*
X296100D01*
X105100Y296698D02*
X296100D01*
X105100Y295798D02*
X296100D01*
X105100Y294898D02*
X296100D01*
X105100Y293998D02*
X296100D01*
X105100Y293098D02*
X296100D01*
X105100Y292198D02*
X296100D01*
X105100Y291298D02*
X296100D01*
X105100Y290398D02*
X296100D01*
X105100Y289498D02*
X296100D01*
X105100Y288598D02*
X296100D01*
X105100Y287698D02*
X296100D01*
X105100Y286798D02*
X296100D01*
X105100Y285898D02*
X296100D01*
X137540Y284998D02*
X296100D01*
X138199Y284098D02*
X296100D01*
X138284Y283198D02*
X296100D01*
X167533Y282298D02*
X296100D01*
X168454Y281398D02*
X296100D01*
X169354Y280498D02*
X296100D01*
X170254Y279598D02*
X296100D01*
X171154Y278698D02*
X296100D01*
X172054Y277798D02*
X296100D01*
X172954Y276898D02*
X296100D01*
X173854Y275998D02*
X296100D01*
X174754Y275098D02*
X296100D01*
X175654Y274198D02*
X296100D01*
X176554Y273298D02*
X296100D01*
X177454Y272398D02*
X296100D01*
X178354Y271498D02*
X296100D01*
X179254Y270598D02*
X296100D01*
X180154Y269698D02*
X296100D01*
X181054Y268798D02*
X296100D01*
X181954Y267898D02*
X296100D01*
X182854Y266998D02*
X296100D01*
X183754Y266098D02*
X296100D01*
X184654Y265198D02*
X296100D01*
X185554Y264298D02*
X296100D01*
X186454Y263398D02*
X296100D01*
X187354Y262498D02*
X296100D01*
X188254Y261598D02*
X296100D01*
X189154Y260698D02*
X296100D01*
X190054Y259798D02*
X296100D01*
X190954Y258898D02*
X296100D01*
X191854Y257998D02*
X296100D01*
X192754Y257098D02*
X296100D01*
X193654Y256198D02*
X296100D01*
X284231Y255298D02*
X296100D01*
X286078Y254398D02*
X296100D01*
X287324Y253498D02*
X296100D01*
X288268Y252598D02*
X296100D01*
X289013Y251698D02*
X296100D01*
X289607Y250798D02*
X296100D01*
X290079Y249898D02*
X296100D01*
X290446Y248998D02*
X296100D01*
X290721Y248098D02*
X296100D01*
X290911Y247198D02*
X296100D01*
X291019Y246298D02*
X296100D01*
X291049Y245398D02*
X296100D01*
X291001Y244498D02*
X296100D01*
X290875Y243598D02*
X296100D01*
X290667Y242698D02*
X296100D01*
X290372Y241798D02*
X296100D01*
X289982Y240898D02*
X296100D01*
X289484Y239998D02*
X296100D01*
X288859Y239098D02*
X296100D01*
X288076Y238198D02*
X296100D01*
X287076Y237298D02*
X296100D01*
X285735Y236398D02*
X296100D01*
X283629Y235498D02*
X296100D01*
X105100Y234598D02*
X296100D01*
X105100Y233698D02*
X296100D01*
X105100Y232798D02*
X296100D01*
X105100Y231898D02*
X296100D01*
X105100Y230998D02*
X296100D01*
X105100Y230098D02*
X296100D01*
X105100Y229198D02*
X296100D01*
X105100Y228298D02*
X296100D01*
X105100Y227398D02*
X296100D01*
X105100Y226498D02*
X296100D01*
X105100Y225598D02*
X296100D01*
X105100Y224698D02*
X296100D01*
X105100Y223798D02*
X296100D01*
X105100Y222898D02*
X296100D01*
X105100Y221998D02*
X296100D01*
X105100Y221098D02*
X296100D01*
X105100Y220198D02*
X296100D01*
X105100Y219298D02*
X296100D01*
X105100Y218398D02*
X296100D01*
X105100Y217498D02*
X296100D01*
X105100Y216598D02*
X296100D01*
X105100Y215698D02*
X296100D01*
X105100Y214798D02*
X296100D01*
X105100Y213898D02*
X296100D01*
X105100Y212998D02*
X296100D01*
X105100Y212098D02*
X296100D01*
X105100Y211198D02*
X296100D01*
X105100Y210298D02*
X296100D01*
X105100Y209398D02*
X296100D01*
X105100Y208498D02*
X296100D01*
X105100Y207598D02*
X296100D01*
X105100Y206698D02*
X296100D01*
X105100Y205798D02*
X296100D01*
X105100Y204898D02*
X296100D01*
X105100Y203998D02*
X296100D01*
X105100Y203098D02*
X296100D01*
X105100Y202198D02*
X296100D01*
X105100Y201298D02*
X296100D01*
X105100Y200398D02*
X296100D01*
X105100Y199498D02*
X296100D01*
X105100Y198598D02*
X296100D01*
X105100Y197698D02*
X296100D01*
X105100Y196798D02*
X296100D01*
X105100Y195898D02*
X296100D01*
X105100Y194998D02*
X296100D01*
X105100Y194098D02*
X296100D01*
X105100Y193198D02*
X296100D01*
X105100Y192298D02*
X296100D01*
X105100Y191398D02*
X296100D01*
X105100Y190498D02*
X296100D01*
X105100Y189598D02*
X296100D01*
X105100Y188698D02*
X296100D01*
X105100Y187798D02*
X296100D01*
X105100Y186898D02*
X296100D01*
X105100Y185998D02*
X296100D01*
X105100Y185098D02*
X296100D01*
X105100Y184198D02*
X296100D01*
X105100Y183298D02*
X296100D01*
X105100Y182398D02*
X296100D01*
X105100Y181498D02*
X296100D01*
X105100Y180598D02*
X296100D01*
X105100Y179698D02*
X296100D01*
X105100Y178798D02*
X296100D01*
X105100Y177898D02*
X296100D01*
X105100Y176998D02*
X296100D01*
X105100Y176098D02*
X296100D01*
X105100Y175198D02*
X296100D01*
X105100Y174298D02*
X296100D01*
X105100Y173398D02*
X296100D01*
X105100Y172498D02*
X296100D01*
X105100Y171598D02*
X296100D01*
X105100Y170698D02*
X296100D01*
X105100Y169798D02*
X296100D01*
X105100Y168898D02*
X296100D01*
X105100Y167998D02*
X296100D01*
X105100Y167098D02*
X296100D01*
X105100Y166198D02*
X296100D01*
X105100Y165298D02*
X296100D01*
X105100Y164398D02*
X296100D01*
X105100Y163498D02*
X296100D01*
X105100Y162598D02*
X296100D01*
X105100Y161698D02*
X296100D01*
X291641Y160798D02*
X296100D01*
X293732Y159898D02*
X296100D01*
X294713Y158998D02*
X296100D01*
X113331Y340798D02*
X296000D01*
X105100Y160798D02*
X289558D01*
X225950Y150898D02*
X287769D01*
X105100Y159898D02*
X287467D01*
X225950Y151798D02*
X286668D01*
X105100Y158998D02*
X286486D01*
X225950Y152698D02*
X285983D01*
X105100Y158098D02*
X285866D01*
X225950Y153598D02*
X285545D01*
X105100Y157198D02*
X285474D01*
X225950Y154498D02*
X285293D01*
X105100Y156298D02*
X285259D01*
X105100Y155398D02*
X285200D01*
X123629Y235498D02*
X277570D01*
X194554Y255298D02*
X276968D01*
X125735Y236398D02*
X275464D01*
X196139Y254398D02*
X275121D01*
X127076Y237298D02*
X274123D01*
X197024Y253498D02*
X273875D01*
X128076Y238198D02*
X273123D01*
X197386Y252598D02*
X272931D01*
X128859Y239098D02*
X272340D01*
X197434Y251698D02*
X272186D01*
X129484Y239998D02*
X271715D01*
X197184Y250798D02*
X271592D01*
X129982Y240898D02*
X271217D01*
X196525Y249898D02*
X271120D01*
X130372Y241798D02*
X270827D01*
X130446Y248998D02*
X270753D01*
X130667Y242698D02*
X270532D01*
X130721Y248098D02*
X270478D01*
X130875Y243598D02*
X270324D01*
X130911Y247198D02*
X270288D01*
X131001Y244498D02*
X270198D01*
X131019Y246298D02*
X270180D01*
X131049Y245398D02*
X270150D01*
X130079Y249898D02*
X192674D01*
X129607Y250798D02*
X192015D01*
X129013Y251698D02*
X191648D01*
X128268Y252598D02*
X190748D01*
X127324Y253498D02*
X189848D01*
X126078Y254398D02*
X188948D01*
X124231Y255298D02*
X188048D01*
X105100Y256198D02*
X187148D01*
X105100Y257098D02*
X186248D01*
X105100Y257998D02*
X185348D01*
X105100Y258898D02*
X184448D01*
X105100Y259798D02*
X183548D01*
X105100Y260698D02*
X182648D01*
X105100Y261598D02*
X181748D01*
X105100Y262498D02*
X180848D01*
X105100Y263398D02*
X179948D01*
X105100Y264298D02*
X179048D01*
X105100Y265198D02*
X178148D01*
X105100Y266098D02*
X177248D01*
X105100Y266998D02*
X176348D01*
X105100Y267898D02*
X175448D01*
X105100Y268798D02*
X174548D01*
X105100Y154498D02*
X174068D01*
X105100Y153598D02*
X174068D01*
X105100Y152698D02*
X174068D01*
X105100Y151798D02*
X174068D01*
X105100Y150898D02*
X174068D01*
X105100Y269698D02*
X173648D01*
X105100Y270598D02*
X172748D01*
X105100Y271498D02*
X171848D01*
X105100Y272398D02*
X170948D01*
X105100Y273298D02*
X170048D01*
X105100Y274198D02*
X169148D01*
X105100Y275098D02*
X168248D01*
X137536Y275998D02*
X167348D01*
X138198Y276898D02*
X166448D01*
X138283Y277798D02*
X165548D01*
X105100Y275998D02*
X129411D01*
X105100Y284998D02*
X129407D01*
X105100Y276898D02*
X128749D01*
X105100Y284098D02*
X128748D01*
X105100Y283198D02*
X128673D01*
X105100Y282298D02*
X128673D01*
X105100Y281398D02*
X128673D01*
X105100Y280498D02*
X128673D01*
X105100Y279598D02*
X128673D01*
X105100Y278698D02*
X128673D01*
X105100Y277798D02*
X128673D01*
X105100Y235498D02*
X117570D01*
X105100Y255298D02*
X116968D01*
X105100Y236398D02*
X115464D01*
X105100Y254398D02*
X115121D01*
X105100Y237298D02*
X114123D01*
X105100Y253498D02*
X113875D01*
X105100Y238198D02*
X113123D01*
X105100Y252598D02*
X112931D01*
X105100Y239098D02*
X112340D01*
X105100Y251698D02*
X112186D01*
X105100Y239998D02*
X111715D01*
X105100Y250798D02*
X111592D01*
X105100Y240898D02*
X111217D01*
X105100Y249898D02*
X111120D01*
X105100Y241798D02*
X110827D01*
X105100Y248998D02*
X110753D01*
X105100Y242698D02*
X110532D01*
X105100Y248098D02*
X110478D01*
X105100Y243598D02*
X110324D01*
X105100Y247198D02*
X110288D01*
X105100Y244498D02*
X110198D01*
X105100Y246298D02*
X110180D01*
X105100Y245398D02*
X110150D01*
X105100Y330898D02*
X107773D01*
X105100Y331798D02*
X106668D01*
X105225Y332698D02*
X105974D01*
X100600Y345500D02*
X300600D01*
Y145500*
X100600*
Y345500*
X243100Y105750D02*
Y100500D01*
X240918*
X237463Y105750D02*
X239281Y102250D01*
X239281D02*
X236554D01*
X237463Y105750D02*
Y100500D01*
X234918Y102750D02*
X231645D01*
X230009Y105750D02*
Y100500D01*
Y105750D02*
X228372D01*
X228372D02*
X227827Y105500D01*
X227645Y105250*
X227463Y104750*
X227463D02*
Y104250D01*
X227463D02*
X227645Y103750D01*
X227827Y103500*
X228372Y103250*
X230009D02*
X228372D01*
X228372D02*
X227827Y103000D01*
X227645Y102750*
X227463Y102250*
X227463D02*
Y101500D01*
X227463D02*
X227645Y101000D01*
X227827Y100750*
X228372Y100500*
X228372D02*
X230009D01*
X224736Y105750D02*
X225100Y105500D01*
X225463Y105000*
X225463D02*
X225645Y104500D01*
X225827Y103750*
Y102500*
X225645Y101750*
X225463Y101250*
X225463D02*
X225100Y100750D01*
X224736Y100500*
X224009*
X223645Y100750*
X223281Y101250*
X223281D02*
X223100Y101750D01*
X222918Y102500*
Y103750*
X223100Y104500*
X223281Y105000*
X223281D02*
X223645Y105500D01*
X224009Y105750*
X224736*
X220009D02*
Y100500D01*
X221281Y105750D02*
X218736D01*
X215827D02*
Y100500D01*
X217100Y105750D02*
X214554D01*
X211827D02*
X212190Y105500D01*
X212190D02*
X212554Y105000D01*
X212554D02*
X212736Y104500D01*
X212918Y103750*
Y102500*
X212736Y101750*
X212554Y101250*
X212554D02*
X212190Y100750D01*
X212190D02*
X211827Y100500D01*
X211100*
X210736Y100750*
X210372Y101250*
X210372D02*
X210190Y101750D01*
X210190D02*
X210009Y102500D01*
Y103750*
X210190Y104500*
X210190D02*
X210372Y105000D01*
X210372D02*
X210736Y105500D01*
X211100Y105750*
X211827*
X208372D02*
Y100500D01*
Y105750D02*
X206918Y100500D01*
X205463Y105750D02*
X206918Y100500D01*
X205463Y105750D02*
Y100500D01*
X199645Y105750D02*
Y100500D01*
X197463*
X194372Y105750D02*
X195827Y100500D01*
X194372Y105750D02*
X192918Y100500D01*
X195281Y102250D02*
X193463D01*
X191281Y105750D02*
X189827Y103250D01*
Y100500*
X188372Y105750D02*
X189827Y103250D01*
X186736Y105750D02*
Y100500D01*
Y105750D02*
X184372D01*
X186736Y103250D02*
X185281D01*
X186736Y100500D02*
X184372D01*
X182736Y105750D02*
Y100500D01*
Y105750D02*
X181100D01*
X180554Y105500*
X180554D02*
X180372Y105250D01*
X180372D02*
X180190Y104750D01*
X180190D02*
Y104250D01*
X180190D02*
X180372Y103750D01*
X180372D02*
X180554Y103500D01*
X180554D02*
X181100Y103250D01*
X182736*
X181463D02*
X180190Y100500D01*
X100600Y120500D02*
X246600D01*
X100600Y116406D02*
Y110500D01*
Y116406D02*
X102031D01*
X102031D02*
X102645Y116125D01*
X103054Y115562*
X103054D02*
X103259Y115000D01*
X103463Y114156*
X103463D02*
Y112750D01*
X103463D02*
X103259Y111906D01*
X103054Y111343*
X103054D02*
X102645Y110781D01*
X102031Y110500*
X102031D02*
X100600D01*
X108372Y115000D02*
X108168Y115562D01*
X108168D02*
X107759Y116125D01*
X107350Y116406*
X106531*
X106531D02*
X106122Y116125D01*
X106122D02*
X105713Y115562D01*
X105713D02*
X105509Y115000D01*
X105304Y114156*
X105304D02*
Y112750D01*
X105304D02*
X105509Y111906D01*
X105713Y111343*
X105713D02*
X106122Y110781D01*
X106122D02*
X106531Y110500D01*
X106531D02*
X107350D01*
X107759Y110781*
X108168Y111343*
X108168D02*
X108372Y111906D01*
X111236Y116406D02*
X110622Y116125D01*
X110622D02*
X110418Y115562D01*
X110418D02*
Y115000D01*
X110622Y114437*
X110622D02*
X111031Y114156D01*
X111031D02*
X111850Y113875D01*
X112463Y113593*
X112463D02*
X112872Y113031D01*
X112872D02*
X113077Y112468D01*
X113077D02*
Y111625D01*
X112872Y111062*
X112872D02*
X112668Y110781D01*
X112054Y110500*
X112054D02*
X111236D01*
X110622Y110781*
X110622D02*
X110418Y111062D01*
X110418D02*
X110213Y111625D01*
X110213D02*
Y112468D01*
X110213D02*
X110418Y113031D01*
X110827Y113593*
X110827D02*
X111440Y113875D01*
X111440D02*
X112259Y114156D01*
X112668Y114437*
X112668D02*
X112872Y115000D01*
X112872D02*
Y115562D01*
X112872D02*
X112668Y116125D01*
X112054Y116406*
X112054D02*
X111236D01*
X117781D02*
X115736Y110500D01*
X114918Y116406D02*
X117781D01*
X122486D02*
X120440Y110500D01*
X119622Y116406D02*
X122486D01*
X125963D02*
X124327Y110500D01*
X125963Y116406D02*
X127600Y110500D01*
X124940Y112468D02*
X126986D01*
X134145Y116406D02*
Y110500D01*
Y116406D02*
X135986D01*
X136600Y116125*
X136804Y115843*
X136804D02*
X137009Y115281D01*
Y114718*
X137009D02*
X136804Y114156D01*
X136804D02*
X136600Y113875D01*
X135986Y113593*
X135986D02*
X134145D01*
X135577D02*
X137009Y110500D01*
X138850Y116406D02*
Y110500D01*
Y116406D02*
X141509D01*
X138850Y113593D02*
X140486D01*
X138850Y110500D02*
X141509D01*
X143350Y116406D02*
X144986Y110500D01*
X146622Y116406D02*
X144986Y110500D01*
X153372Y115000D02*
Y115281D01*
X153372D02*
X153577Y115843D01*
X153577D02*
X153781Y116125D01*
X153781D02*
X154190Y116406D01*
X154190D02*
X155009D01*
X155418Y116125*
X155622Y115843*
X155622D02*
X155827Y115281D01*
Y114718*
X155827D02*
X155622Y114156D01*
X155622D02*
X155213Y113312D01*
X155213D02*
X153168Y110500D01*
X156031*
X101827Y106406D02*
X101213Y106125D01*
X101213D02*
X100804Y105281D01*
X100804D02*
X100600Y103875D01*
Y103031*
X100804Y101625*
X100804D02*
X101213Y100781D01*
X101213D02*
X101827Y100500D01*
X102236*
X102850Y100781*
X103259Y101625*
X103463Y103031*
X103463D02*
Y103875D01*
X103463D02*
X103259Y105281D01*
X102850Y106125*
X102236Y106406*
X101827*
X106327D02*
X105713Y106125D01*
X105713D02*
X105509Y105562D01*
X105509D02*
Y105000D01*
X105713Y104437*
X105713D02*
X106122Y104156D01*
X106122D02*
X106940Y103875D01*
X106940D02*
X107554Y103593D01*
X107554D02*
X107963Y103031D01*
X107963D02*
X108168Y102468D01*
X108168D02*
Y101625D01*
X107963Y101062*
X107963D02*
X107759Y100781D01*
X107145Y100500*
X106327*
X105713Y100781*
X105713D02*
X105509Y101062D01*
X105509D02*
X105304Y101625D01*
X105304D02*
Y102468D01*
X105304D02*
X105509Y103031D01*
X105918Y103593*
X105918D02*
X106531Y103875D01*
X106531D02*
X107350Y104156D01*
X107759Y104437*
X107759D02*
X107963Y105000D01*
X107963D02*
Y105562D01*
X107963D02*
X107759Y106125D01*
X107145Y106406*
X106327*
X113690Y107531D02*
X110009Y98531D01*
X115531Y105281D02*
X115940Y105562D01*
X115940D02*
X116554Y106406D01*
X116554D02*
Y100500D01*
X121054Y106406D02*
X119009D01*
X118804Y103875*
X118804D02*
X119009Y104156D01*
X119622Y104437*
X119622D02*
X120236D01*
X120236D02*
X120850Y104156D01*
X121259Y103593*
X121259D02*
X121463Y102750D01*
X121463D02*
X121259Y102187D01*
X121259D02*
X121054Y101343D01*
X121054D02*
X120645Y100781D01*
X120031Y100500*
X120031D02*
X119418D01*
X118804Y100781*
X118804D02*
X118600Y101062D01*
X118600D02*
X118395Y101625D01*
X126986Y107531D02*
X123304Y98531D01*
X130054Y106406D02*
X129440Y106125D01*
X129440D02*
X129031Y105281D01*
X129031D02*
X128827Y103875D01*
Y103031*
X129031Y101625*
X129031D02*
X129440Y100781D01*
X129440D02*
X130054Y100500D01*
X130054D02*
X130463D01*
X130463D02*
X131077Y100781D01*
X131486Y101625*
X131690Y103031*
X131690D02*
Y103875D01*
X131690D02*
X131486Y105281D01*
X131077Y106125*
X130463Y106406*
X130463D02*
X130054D01*
X136190D02*
X134145D01*
X133940Y103875*
X133940D02*
X134145Y104156D01*
X134759Y104437*
X134759D02*
X135372D01*
X135372D02*
X135986Y104156D01*
X136395Y103593*
X136395D02*
X136600Y102750D01*
X136395Y102187*
X136395D02*
X136190Y101343D01*
X136190D02*
X135781Y100781D01*
X135781D02*
X135168Y100500D01*
X134554*
X134554D02*
X133940Y100781D01*
X133940D02*
X133736Y101062D01*
X133736D02*
X133531Y101625D01*
G54D22*
X194600Y252000D02*
X166100Y280500D01*
X133474*
X100600Y129562D02*
Y123000D01*
X103327*
X105372Y129562D02*
Y123000D01*
X107418Y129562D02*
Y123000D01*
Y129562D02*
X110600Y123000D01*
Y129562D02*
Y123000D01*
X112645Y129562D02*
Y123000D01*
Y129562D02*
X115600D01*
X112645Y126437D02*
X114463D01*
X112645Y123000D02*
X115600D01*
X119463Y129562D02*
X117645Y123000D01*
X119463Y129562D02*
X121281Y123000D01*
X118327Y125187D02*
X120600D01*
X123327Y129562D02*
Y123000D01*
Y129562D02*
X125372D01*
X125372D02*
X126054Y129250D01*
X126054D02*
X126281Y128937D01*
X126281D02*
X126509Y128312D01*
X126509D02*
Y127687D01*
X126509D02*
X126281Y127062D01*
X126281D02*
X126054Y126750D01*
X126054D02*
X125372Y126437D01*
X125372D02*
X123327D01*
X124918D02*
X126509Y123000D01*
X135372Y129562D02*
Y123000D01*
X133781Y129562D02*
X136963D01*
X139009D02*
Y123000D01*
Y129562D02*
X141963D01*
X139009Y126437D02*
X140827D01*
X139009Y123000D02*
X141963D01*
X147418Y128000D02*
X147190Y128625D01*
X147190D02*
X146736Y129250D01*
X146281Y129562*
X146281D02*
X145372D01*
X145372D02*
X144918Y129250D01*
X144463Y128625*
X144463D02*
X144236Y128000D01*
X144009Y127062*
X144009D02*
Y125500D01*
X144236Y124562*
X144236D02*
X144463Y123937D01*
X144463D02*
X144918Y123312D01*
X144918D02*
X145372Y123000D01*
X145372D02*
X146281D01*
X146281D02*
X146736Y123312D01*
X146736D02*
X147190Y123937D01*
X147190D02*
X147418Y124562D01*
X149463Y129562D02*
Y123000D01*
X152645Y129562D02*
Y123000D01*
X149463Y126437D02*
X152645D01*
X154690Y129562D02*
Y123000D01*
Y129562D02*
X157872Y123000D01*
Y129562D02*
Y123000D01*
X161281Y129562D02*
X160827Y129250D01*
X160372Y128625*
X160372D02*
X160145Y128000D01*
X159918Y127062*
X159918D02*
Y125500D01*
X160145Y124562*
X160145D02*
X160372Y123937D01*
X160372D02*
X160827Y123312D01*
X160827D02*
X161281Y123000D01*
X161281D02*
X162190D01*
X162190D02*
X162645Y123312D01*
X162645D02*
X163100Y123937D01*
X163100D02*
X163327Y124562D01*
X163327D02*
X163554Y125500D01*
X163554D02*
Y127062D01*
X163554D02*
X163327Y128000D01*
X163100Y128625*
X162645Y129250*
X162190Y129562*
X162190D02*
X161281D01*
X165600D02*
Y123000D01*
X168327*
X171736Y129562D02*
X171281Y129250D01*
X171281D02*
X170827Y128625D01*
X170600Y128000*
X170372Y127062*
X170372D02*
Y125500D01*
X170372D02*
X170600Y124562D01*
X170600D02*
X170827Y123937D01*
X170827D02*
X171281Y123312D01*
X171281D02*
X171736Y123000D01*
X172645*
X173100Y123312*
X173100D02*
X173554Y123937D01*
X173554D02*
X173781Y124562D01*
X173781D02*
X174009Y125500D01*
Y127062*
X174009D02*
X173781Y128000D01*
X173781D02*
X173554Y128625D01*
X173554D02*
X173100Y129250D01*
X172645Y129562*
X172645D02*
X171736D01*
X179463Y128000D02*
X179236Y128625D01*
X178781Y129250*
X178781D02*
X178327Y129562D01*
X178327D02*
X177418D01*
X177418D02*
X176963Y129250D01*
X176963D02*
X176509Y128625D01*
X176281Y128000*
X176281D02*
X176054Y127062D01*
X176054D02*
Y125500D01*
X176054D02*
X176281Y124562D01*
X176281D02*
X176509Y123937D01*
X176509D02*
X176963Y123312D01*
X176963D02*
X177418Y123000D01*
X178327*
X178781Y123312*
X178781D02*
X179236Y123937D01*
X179236D02*
X179463Y124562D01*
X179463D02*
Y125500D01*
X178327D02*
X179463D01*
X181509Y129562D02*
X183327Y126437D01*
X183327D02*
Y123000D01*
X185145Y129562D02*
X183327Y126437D01*
X195827Y128000D02*
X195600Y128625D01*
X195145Y129250*
X194690Y129562*
X194690D02*
X193781D01*
X193781D02*
X193327Y129250D01*
X192872Y128625*
X192872D02*
X192645Y128000D01*
X192418Y127062*
X192418D02*
Y125500D01*
X192645Y124562*
X192645D02*
X192872Y123937D01*
X192872D02*
X193327Y123312D01*
X193327D02*
X193781Y123000D01*
X193781D02*
X194690D01*
X194690D02*
X195145Y123312D01*
X195145D02*
X195600Y123937D01*
X195600D02*
X195827Y124562D01*
X199236Y129562D02*
X198781Y129250D01*
X198781D02*
X198327Y128625D01*
X198100Y128000*
X197872Y127062*
X197872D02*
Y125500D01*
X197872D02*
X198100Y124562D01*
X198100D02*
X198327Y123937D01*
X198327D02*
X198781Y123312D01*
X198781D02*
X199236Y123000D01*
X200145*
X200600Y123312*
X200600D02*
X201054Y123937D01*
X201054D02*
X201281Y124562D01*
X201281D02*
X201509Y125500D01*
Y127062*
X201509D02*
X201281Y128000D01*
X201281D02*
X201054Y128625D01*
X201054D02*
X200600Y129250D01*
X200145Y129562*
X200145D02*
X199236D01*
X203554D02*
Y123000D01*
Y129562D02*
X205600D01*
X205600D02*
X206281Y129250D01*
X206281D02*
X206509Y128937D01*
X206509D02*
X206736Y128312D01*
X206736D02*
Y127687D01*
X206736D02*
X206509Y127062D01*
X206509D02*
X206281Y126750D01*
X206281D02*
X205600Y126437D01*
X205600D02*
X203554D01*
X205145D02*
X206736Y123000D01*
X208781Y129562D02*
Y123000D01*
Y129562D02*
X210827D01*
X210827D02*
X211509Y129250D01*
X211736Y128937*
X211736D02*
X211963Y128312D01*
X211963D02*
Y127375D01*
X211963D02*
X211736Y126750D01*
X211509Y126437*
X211509D02*
X210827Y126125D01*
X208781*
X215372Y129562D02*
X214918Y129250D01*
X214463Y128625*
X214463D02*
X214236Y128000D01*
X214009Y127062*
X214009D02*
Y125500D01*
X214236Y124562*
X214236D02*
X214463Y123937D01*
X214463D02*
X214918Y123312D01*
X214918D02*
X215372Y123000D01*
X215372D02*
X216281D01*
X216281D02*
X216736Y123312D01*
X216736D02*
X217190Y123937D01*
X217190D02*
X217418Y124562D01*
X217418D02*
X217645Y125500D01*
Y127062*
X217645D02*
X217418Y128000D01*
X217190Y128625*
X217190D02*
X216736Y129250D01*
X216281Y129562*
X216281D02*
X215372D01*
X219690D02*
Y123000D01*
Y129562D02*
X221736D01*
X221736D02*
X222418Y129250D01*
X222645Y128937*
X222645D02*
X222872Y128312D01*
X222872D02*
Y127687D01*
X222872D02*
X222645Y127062D01*
X222645D02*
X222418Y126750D01*
X221736Y126437*
X221736D02*
X219690D01*
X221281D02*
X222872Y123000D01*
X226736Y129562D02*
X224918Y123000D01*
X226736Y129562D02*
X228554Y123000D01*
X225600Y125187D02*
X227872D01*
X232190Y129562D02*
Y123000D01*
X230600Y129562D02*
X233781D01*
X235827D02*
Y123000D01*
X239236Y129562D02*
X238781Y129250D01*
X238781D02*
X238327Y128625D01*
X238100Y128000*
X237872Y127062*
X237872D02*
Y125500D01*
X237872D02*
X238100Y124562D01*
X238100D02*
X238327Y123937D01*
X238327D02*
X238781Y123312D01*
X238781D02*
X239236Y123000D01*
X240145*
X240600Y123312*
X240600D02*
X241054Y123937D01*
X241054D02*
X241281Y124562D01*
X241281D02*
X241509Y125500D01*
Y127062*
X241509D02*
X241281Y128000D01*
X241281D02*
X241054Y128625D01*
X241054D02*
X240600Y129250D01*
X240145Y129562*
X240145D02*
X239236D01*
X243554D02*
Y123000D01*
Y129562D02*
X246736Y123000D01*
Y129562D02*
Y123000D01*
G54D53*
X225100Y153437D02*
Y149500D01*
Y153437D02*
X223327D01*
X225100Y151562D02*
X224009D01*
X221009Y153437D02*
X222100Y149500D01*
X221009Y153437D02*
X219918Y149500D01*
X221690Y150812D02*
X220327D01*
X218690Y153437D02*
Y149500D01*
Y153437D02*
X217463D01*
X217463D02*
X217054Y153250D01*
X217054D02*
X216918Y153062D01*
X216918D02*
X216781Y152687D01*
X216781D02*
Y152312D01*
X216781D02*
X216918Y151937D01*
X216918D02*
X217054Y151750D01*
X217054D02*
X217463Y151562D01*
X218690D02*
X217463D01*
X217463D02*
X217054Y151375D01*
X217054D02*
X216918Y151187D01*
X216918D02*
X216781Y150812D01*
X216781D02*
Y150250D01*
X216781D02*
X216918Y149875D01*
X217054Y149687*
X217054D02*
X217463Y149500D01*
X217463D02*
X218690D01*
X212418Y153437D02*
Y149500D01*
Y153437D02*
X211463D01*
X211463D02*
X211054Y153250D01*
X211054D02*
X210781Y152875D01*
X210781D02*
X210645Y152500D01*
X210509Y151937*
X210509D02*
Y151000D01*
X210645Y150437*
X210645D02*
X210781Y150062D01*
X210781D02*
X211054Y149687D01*
X211054D02*
X211463Y149500D01*
X211463D02*
X212418D01*
X207236Y152500D02*
X207372Y152875D01*
X207372D02*
X207645Y153250D01*
X207918Y153437*
X207918D02*
X208463D01*
X208463D02*
X208736Y153250D01*
X209009Y152875*
X209145Y152500*
X209281Y151937*
X209281D02*
Y151000D01*
X209281D02*
X209145Y150437D01*
X209145D02*
X209009Y150062D01*
X209009D02*
X208736Y149687D01*
X208736D02*
X208463Y149500D01*
X208463D02*
X207918D01*
X207645Y149687*
X207645D02*
X207372Y150062D01*
X207372D02*
X207236Y150437D01*
X205327Y153437D02*
X205736Y153250D01*
X205872Y152875*
X205872D02*
Y152500D01*
X205872D02*
X205736Y152125D01*
X205463Y151937*
X205463D02*
X204918Y151750D01*
X204509Y151562*
X204509D02*
X204236Y151187D01*
X204236D02*
X204100Y150812D01*
X204100D02*
Y150250D01*
X204236Y149875*
X204372Y149687*
X204372D02*
X204781Y149500D01*
X204781D02*
X205327D01*
X205736Y149687*
X205736D02*
X205872Y149875D01*
X205872D02*
X206009Y150250D01*
Y150812*
X206009D02*
X205872Y151187D01*
X205872D02*
X205600Y151562D01*
X205600D02*
X205190Y151750D01*
X205190D02*
X204645Y151937D01*
X204645D02*
X204372Y152125D01*
X204372D02*
X204236Y152500D01*
Y152875*
X204372Y153250*
X204372D02*
X204781Y153437D01*
X204781D02*
X205327D01*
X200963D02*
X202327Y149500D01*
X202872Y153437D02*
X200963D01*
X197827D02*
X199190Y149500D01*
X199736Y153437D02*
X197827D01*
X195509D02*
X196600Y149500D01*
X195509Y153437D02*
X194418Y149500D01*
X196190Y150812D02*
X194827D01*
X190054Y153437D02*
Y149500D01*
Y153437D02*
X188827D01*
X188827D02*
X188418Y153250D01*
X188281Y153062*
X188281D02*
X188145Y152687D01*
X188145D02*
Y152312D01*
X188145D02*
X188281Y151937D01*
X188281D02*
X188418Y151750D01*
X188827Y151562*
X188827D02*
X190054D01*
X189100D02*
X188145Y149500D01*
X186918Y153437D02*
Y149500D01*
Y153437D02*
X185145D01*
X186918Y151562D02*
X185827D01*
X186918Y149500D02*
X185145D01*
X183918Y153437D02*
X182827Y149500D01*
X181736Y153437D02*
X182827Y149500D01*
X177236Y152500D02*
Y152687D01*
X177236D02*
X177100Y153062D01*
X177100D02*
X176963Y153250D01*
X176963D02*
X176690Y153437D01*
X176690D02*
X176145D01*
X176145D02*
X175872Y153250D01*
X175872D02*
X175736Y153062D01*
X175736D02*
X175600Y152687D01*
X175600D02*
Y152312D01*
X175600D02*
X175736Y151937D01*
X175736D02*
X176009Y151375D01*
X177372Y149500*
X177372D02*
X175463D01*
G54D64*
X133474Y280500D03*
G54D65*
X125600D03*
X117726D03*
G54D72*
X202100Y240500D03*
X194600Y252000D03*
X203100Y250000D03*
G54D78*
X120600Y245500D03*
Y205500D03*
X280600Y245500D03*
Y205500D03*
G74*
X0Y0D02*
M02*
