*
*
G04 PADS Layout (Build Number 2004.264.1) generated Gerber (RS-274-X) file*
G04 PC Version=2.1*
*
%IN "877A-2.PCB"*%
*
%MOIN*%
*
%FSLAX35Y35*%
*
*
*
*
G04 PC Standard Apertures*
*
*
G04 Thermal Relief Aperture macro.*
%AMTER*
1,1,$1,0,0*
1,0,$1-$2,0,0*
21,0,$3,$4,0,0,45*
21,0,$3,$4,0,0,135*
%
*
*
G04 Annular Aperture macro.*
%AMANN*
1,1,$1,0,0*
1,0,$2,0,0*
%
*
*
G04 Odd Aperture macro.*
%AMODD*
1,1,$1,0,0*
1,0,$1-0.005,0,0*
%
*
*
G04 PC Custom Aperture Macros*
*
*
*
*
*
*
G04 PC Aperture Table*
*
%ADD010C,0.01*%
%ADD022C,0.012*%
%ADD064R,0.062X0.062*%
%ADD065C,0.062*%
%ADD072C,0.023*%
%ADD078C,0.175*%
%ADD084R,0.03X0.0337*%
%ADD085O,0.05709X0.02756*%
%ADD086O,0.05709X0.02441*%
%ADD087R,0.025X0.025*%
%ADD088R,0.02756X0.02362*%
%ADD089R,0.056X0.0473*%
*
*
*
*
G04 PC Custom Flashes*
G04 Layer Name 877A-2.PCB - flashes*
%LPD*%
*
*
G04 PC Circuitry*
G04 Layer Name 877A-2.PCB - circuitry*
%LPD*%
*
G54D10*
G01X195227Y233341D02*
X191758Y229872D01*
X191758D02*
X194948Y226682D01*
X194948D02*
X198417Y230151D01*
X198417D02*
X195227Y233341D01*
X194131Y227500D02*
X195766D01*
X193131Y228500D02*
X196766D01*
X192131Y229500D02*
X197766D01*
X192386Y230500D02*
X198068D01*
X193386Y231500D02*
X197068D01*
X194386Y232500D02*
X196068D01*
X192600Y229031D02*
Y230713D01*
X193600Y228031D02*
Y231713D01*
X194600Y227031D02*
Y232713D01*
X195600Y227333D02*
Y232968D01*
X196600Y228333D02*
Y231968D01*
X197600Y229333D02*
Y230968D01*
X206251Y222317D02*
X202782Y218848D01*
X202782D02*
X205972Y215658D01*
X205972D02*
X209441Y219127D01*
X206251Y222317*
X205131Y216500D02*
X206813D01*
X204131Y217500D02*
X207813D01*
X203131Y218500D02*
X208813D01*
X203433Y219500D02*
X209068D01*
X204433Y220500D02*
X208068D01*
X205433Y221500D02*
X207068D01*
X203600Y218031D02*
Y219666D01*
X204600Y217031D02*
Y220666D01*
X205600Y216031D02*
Y221666D01*
X206600Y216286D02*
Y221968D01*
X207600Y217286D02*
Y220968D01*
X208600Y218286D02*
Y219968D01*
X205100Y237000D02*
X213600D01*
Y222707*
X206100Y215207*
X202307Y219000*
X205100Y221792*
X205100D02*
Y237000D01*
Y236805D02*
X213600D01*
X205100Y235905D02*
X213600D01*
X205100Y235005D02*
X213600D01*
X205100Y234105D02*
X213600D01*
X205100Y233205D02*
X213600D01*
X205100Y232305D02*
X213600D01*
X205100Y231405D02*
X213600D01*
X205100Y230505D02*
X213600D01*
X205100Y229605D02*
X213600D01*
X205100Y228705D02*
X213600D01*
X205100Y227805D02*
X213600D01*
X205100Y226905D02*
X213600D01*
X205100Y226005D02*
X213600D01*
X205100Y225105D02*
X213600D01*
X205100Y224205D02*
X213600D01*
X205100Y223305D02*
X213600D01*
X205100Y222405D02*
X213298D01*
X204812Y221505D02*
X212398D01*
X203912Y220605D02*
X211498D01*
X203012Y219705D02*
X210598D01*
X202501Y218805D02*
X209698D01*
X203401Y217905D02*
X208798D01*
X204301Y217005D02*
X207898D01*
X205201Y216105D02*
X206998D01*
X296100Y264700D02*
Y340500D01*
G75*
G03X295600Y341000I-500J0D01*
G01X113732*
G03X113466Y340076I0J-500*
G01X106023Y332633D02*
G03X113466Y340076I4577J2867D01*
G01X106023Y332633D02*
G03X105100Y332367I-423J-265D01*
G01X105100D02*
Y264700D01*
G03X105600Y264200I500J0*
G01X179892*
X181448Y263555D02*
G03X179892Y264200I-1555J-1555D01*
G01X181448Y263555D02*
X191475Y253528D01*
X191475D02*
G03X192242Y253601I353J354D01*
G01X197406Y251503D02*
G03X192242Y253601I-2806J497D01*
G01X197406Y251503D02*
G03X197484Y251135I492J-87D01*
G01X197777Y250181D02*
G03X197484Y251135I-1699J0D01*
G01X197777Y250181D02*
Y247818D01*
X197758Y247561D02*
G03X197777Y247818I-1680J257D01*
G01X197758Y247561D02*
G03X198000Y247054I494J-74D01*
G01X199137Y245891D02*
G03X198000Y247054I-2690J-1493D01*
G01X199137Y245891D02*
G03X199209Y245793I437J243D01*
G01X199800Y244292D02*
G03X199209Y245793I-2200J0D01*
G01X199800Y244292D02*
Y239500D01*
X199643Y238685D02*
G03X199800Y239500I-2043J815D01*
G01X199643Y238685D02*
G03Y238314I465J-185D01*
G01X199800Y237500D02*
G03X199643Y238314I-2200J0D01*
G01X199800Y237500D02*
Y232411D01*
G03X199946Y232057I500J0*
G01X199946D02*
X200655Y231348D01*
X201300Y229792D02*
G03X200655Y231348I-2200J0D01*
G01X201300Y229792D02*
Y229707D01*
X200655Y228151D02*
G03X201300Y229707I-1555J1556D01*
G01X200655Y228151D02*
X196948Y224444D01*
X195392Y223799D02*
G03X196948Y224444I0J2201D01*
G01X195392Y223799D02*
X187100D01*
X186269Y223962D02*
G03X187100Y223799I831J2038D01*
G01X186269Y223962D02*
G03X186080Y224000I-188J-462D01*
G01X185100*
Y224980*
G03X185062Y225169I-500J0*
G01X184899Y226000D02*
G03X185062Y225169I2201J0D01*
G01X184899Y226000D02*
Y236799D01*
X184899D02*
G03X184399Y237299I-499J0D01*
G01X184399D02*
X184100D01*
X183269Y237462D02*
G03X184100Y237299I831J2038D01*
G01X183269Y237462D02*
G03X183080Y237500I-188J-462D01*
G01X182100*
Y238480*
G03X182062Y238669I-500J0*
G01X181899Y239500D02*
G03X182062Y238669I2201J0D01*
G01X181899Y239500D02*
Y244299D01*
X181899D02*
G03X181399Y244799I-499J0D01*
G01X181399D02*
X173511D01*
X173511D02*
G03X173157Y244653I0J-499D01*
G01X173157D02*
X153448Y224944D01*
X151892Y224299D02*
G03X153448Y224944I0J2201D01*
G01X151892Y224299D02*
X105600D01*
X105600D02*
G03X105100Y223799I0J-499D01*
G01X105100D02*
Y150500D01*
G03X105600Y150000I500J0*
G01X287467*
X287467D02*
G03X287733Y150923I0J500D01*
G01X295176Y158366D02*
G03X287733Y150923I-4576J-2866D01*
G01X295176Y158366D02*
G03X296099Y158632I424J266D01*
G01X296100D02*
Y223799D01*
X296100D02*
G03X295600Y224299I-500J0D01*
G01X295600D02*
X235057D01*
X233501Y224944D02*
G03X235057Y224299I1556J1556D01*
G01X233501Y224944D02*
X217292Y241153D01*
X217292D02*
G03X216938Y241299I-353J-353D01*
G01X216938D02*
X204100D01*
X203269Y241462D02*
G03X204100Y241299I831J2038D01*
G01X203269Y241462D02*
G03X203080Y241500I-188J-462D01*
G01X202100*
Y242480*
G03X202062Y242669I-500J0*
G01X201929Y243137D02*
G03X202062Y242669I2171J363D01*
G01X201929Y243137D02*
G03X201900Y243243I-492J-81D01*
G01X201868Y245470D02*
G03X201900Y243243I2885J-1072D01*
G01X201868Y245470D02*
G03X201899Y245644I-468J174D01*
G01X201899D02*
Y246000D01*
X202062Y246830D02*
G03X201899Y246000I2038J-830D01*
G01X202062Y246831D02*
G03X202100Y247019I-462J188D01*
G01X202100D02*
Y248000D01*
X203080*
G03X203269Y248037I0J500*
G01X204100Y248200D02*
G03X203269Y248037I0J-2200D01*
G01X204100Y248200D02*
X210899D01*
X210899D02*
G03X211399Y248700I0J500D01*
G01X211399D02*
Y252292D01*
X212044Y253848D02*
G03X211399Y252292I1556J-1555D01*
G01X212044Y253848D02*
X221751Y263555D01*
X223307Y264200D02*
G03X221751Y263555I0J-2200D01*
G01X223307Y264200D02*
X295600D01*
G03X296100Y264700I0J500*
G01X197399Y240200D02*
Y240848D01*
X197399D02*
G03X196836Y241344I-499J0D01*
G01X196446Y241319D02*
G03X196836Y241344I0J3078D01*
G01X196446Y241319D02*
X193493D01*
X191539Y246775D02*
G03X193493Y241319I1954J-2377D01*
G01X191539Y246775D02*
G03X191699Y247311I-316J387D01*
G01X191622Y247818D02*
G03X191699Y247311I1700J0D01*
G01X191622Y247818D02*
Y249866D01*
X191622D02*
G03X191475Y250220I-499J0D01*
G01X191475D02*
X180042Y261653D01*
X180042D02*
G03X179688Y261799I-353J-353D01*
G01X179688D02*
X105600D01*
X105600D02*
G03X105100Y261299I0J-499D01*
G01X105100D02*
Y227200D01*
G03X105600Y226700I500J0*
G01X151688*
X151688D02*
G03X152042Y226846I0J500D01*
G01X171751Y246555*
X173307Y247200D02*
G03X171751Y246555I0J-2200D01*
G01X173307Y247200D02*
X182100D01*
X182930Y247037D02*
G03X182100Y247200I-830J-2037D01*
G01X182931Y247037D02*
G03X183119Y247000I188J463D01*
G01X183119D02*
X184100D01*
Y246019*
X184100D02*
G03X184137Y245831I500J0D01*
G01X184300Y245000D02*
G03X184137Y245830I-2200J0D01*
G01X184300Y245000D02*
Y240200D01*
G03X184800Y239700I500J0*
G01X185100*
X185914Y239543D02*
G03X185100Y239700I-814J-2043D01*
G01X185914Y239543D02*
G03X186285I186J465D01*
G01X187100Y239700D02*
G03X186285Y239543I0J-2200D01*
G01X187100Y239700D02*
X196899D01*
X196899D02*
G03X197399Y240200I0J500D01*
G01X198592Y229396D02*
G03Y230103I-353J354D01*
G01X198592D02*
X198044Y230651D01*
X197399Y232207D02*
G03X198044Y230651I2201J0D01*
G01X197399Y232207D02*
Y236799D01*
X197399D02*
G03X196899Y237299I-499J0D01*
G01X196899D02*
X187800D01*
X187800D02*
G03X187300Y236799I0J-499D01*
G01X187300D02*
Y226700D01*
G03X187800Y226200I500J0*
G01X195188*
X195188D02*
G03X195542Y226346I0J500D01*
G01X198592Y229396*
X296100Y227200D02*
Y261299D01*
X296100D02*
G03X295600Y261799I-500J0D01*
G01X295600D02*
X223511D01*
X223511D02*
G03X223157Y261653I0J-499D01*
G01X223157D02*
X213946Y252442D01*
G03X213800Y252088I354J-353*
G01X213800D02*
Y248000D01*
X213637Y247169D02*
G03X213800Y248000I-2037J831D01*
G01X213637Y247169D02*
G03X213600Y246980I463J-188D01*
G01Y246000*
X212619*
X212619D02*
G03X212431Y245962I0J-500D01*
G01X211600Y245799D02*
G03X212430Y245962I0J2201D01*
G01X211600Y245799D02*
X204800D01*
X204800D02*
G03X204300Y245299I0J-499D01*
G01X204300D02*
Y244200D01*
G03X204800Y243700I500J0*
G01X217142*
X218698Y243055D02*
G03X217142Y243700I-1555J-1555D01*
G01X218698Y243055D02*
X234907Y226846D01*
X234907D02*
G03X235261Y226700I354J354D01*
G01X295600*
G03X296100Y227200I0J500*
G01X215800Y237000D02*
Y222707D01*
X215155Y221151D02*
G03X215800Y222707I-1555J1556D01*
G01X215155Y221151D02*
X207655Y213651D01*
X204544D02*
G03X207655I1556J1556D01*
G01X204544D02*
X200751Y217444D01*
Y220555D02*
G03Y217444I1556J-1555D01*
G01Y220555D02*
X202753Y222557D01*
X202753D02*
G03X202899Y222911I-353J354D01*
G01X202899D02*
Y233907D01*
X202899D02*
G03X202728Y234284I-499J0D01*
G01X204753Y239680D02*
G03X202728Y234284I0J-3077D01*
G01X204753Y239680D02*
X207706D01*
X209246Y239267D02*
G03X207706Y239680I-1539J-2664D01*
G01X209246Y239267D02*
G03X209496Y239200I250J433D01*
G01X209496D02*
X213600D01*
X215800Y237000D02*
G03X213600Y239200I-2200J0D01*
G01X138274Y283600D02*
Y277400D01*
X136574Y275699D02*
G03X138274Y277400I0J1701D01*
G01X136574Y275699D02*
X130374D01*
X128673Y277400D02*
G03X130374Y275699I1701J0D01*
G01X128673Y277400D02*
Y283600D01*
X130374Y285300D02*
G03X128673Y283600I0J-1700D01*
G01X130374Y285300D02*
X136574D01*
X138274Y283600D02*
G03X136574Y285300I-1700J0D01*
G01X113732Y339898D02*
X296100D01*
X114713Y338998D02*
X296100D01*
X115333Y338098D02*
X296100D01*
X115725Y337198D02*
X296100D01*
X115940Y336298D02*
X296100D01*
X115999Y335398D02*
X296100D01*
X115906Y334498D02*
X296100D01*
X115654Y333598D02*
X296100D01*
X115216Y332698D02*
X296100D01*
X114531Y331798D02*
X296100D01*
X113426Y330898D02*
X296100D01*
X105100Y329998D02*
X296100D01*
X105100Y329098D02*
X296100D01*
X105100Y328198D02*
X296100D01*
X105100Y327298D02*
X296100D01*
X105100Y326398D02*
X296100D01*
X105100Y325498D02*
X296100D01*
X105100Y324598D02*
X296100D01*
X105100Y323698D02*
X296100D01*
X105100Y322798D02*
X296100D01*
X105100Y321898D02*
X296100D01*
X105100Y320998D02*
X296100D01*
X105100Y320098D02*
X296100D01*
X105100Y319198D02*
X296100D01*
X105100Y318298D02*
X296100D01*
X105100Y317398D02*
X296100D01*
X105100Y316498D02*
X296100D01*
X105100Y315598D02*
X296100D01*
X105100Y314698D02*
X296100D01*
X105100Y313798D02*
X296100D01*
X105100Y312898D02*
X296100D01*
X105100Y311998D02*
X296100D01*
X105100Y311098D02*
X296100D01*
X105100Y310198D02*
X296100D01*
X105100Y309298D02*
X296100D01*
X105100Y308398D02*
X296100D01*
X105100Y307498D02*
X296100D01*
X105100Y306598D02*
X296100D01*
X105100Y305698D02*
X296100D01*
X105100Y304798D02*
X296100D01*
X105100Y303898D02*
X296100D01*
X105100Y302998D02*
X296100D01*
X105100Y302098D02*
X296100D01*
X105100Y301198D02*
X296100D01*
X105100Y300298D02*
X296100D01*
X105100Y299398D02*
X296100D01*
X105100Y298498D02*
X296100D01*
X105100Y297598D02*
X296100D01*
X105100Y296698D02*
X296100D01*
X105100Y295798D02*
X296100D01*
X105100Y294898D02*
X296100D01*
X105100Y293998D02*
X296100D01*
X105100Y293098D02*
X296100D01*
X105100Y292198D02*
X296100D01*
X105100Y291298D02*
X296100D01*
X105100Y290398D02*
X296100D01*
X105100Y289498D02*
X296100D01*
X105100Y288598D02*
X296100D01*
X105100Y287698D02*
X296100D01*
X105100Y286798D02*
X296100D01*
X105100Y285898D02*
X296100D01*
X137540Y284998D02*
X296100D01*
X138199Y284098D02*
X296100D01*
X138274Y283198D02*
X296100D01*
X138274Y282298D02*
X296100D01*
X138274Y281398D02*
X296100D01*
X138274Y280498D02*
X296100D01*
X138274Y279598D02*
X296100D01*
X138274Y278698D02*
X296100D01*
X138274Y277798D02*
X296100D01*
X138198Y276898D02*
X296100D01*
X137536Y275998D02*
X296100D01*
X105100Y275098D02*
X296100D01*
X105100Y274198D02*
X296100D01*
X105100Y273298D02*
X296100D01*
X105100Y272398D02*
X296100D01*
X105100Y271498D02*
X296100D01*
X105100Y270598D02*
X296100D01*
X105100Y269698D02*
X296100D01*
X105100Y268798D02*
X296100D01*
X105100Y267898D02*
X296100D01*
X105100Y266998D02*
X296100D01*
X105100Y266098D02*
X296100D01*
X105100Y265198D02*
X296100D01*
X215800Y223798D02*
X296100D01*
X215800Y222898D02*
X296100D01*
X215682Y221998D02*
X296100D01*
X215102Y221098D02*
X296100D01*
X214202Y220198D02*
X296100D01*
X213302Y219298D02*
X296100D01*
X212402Y218398D02*
X296100D01*
X211502Y217498D02*
X296100D01*
X210602Y216598D02*
X296100D01*
X209702Y215698D02*
X296100D01*
X208802Y214798D02*
X296100D01*
X207902Y213898D02*
X296100D01*
X105100Y212998D02*
X296100D01*
X105100Y212098D02*
X296100D01*
X105100Y211198D02*
X296100D01*
X105100Y210298D02*
X296100D01*
X105100Y209398D02*
X296100D01*
X105100Y208498D02*
X296100D01*
X105100Y207598D02*
X296100D01*
X105100Y206698D02*
X296100D01*
X105100Y205798D02*
X296100D01*
X105100Y204898D02*
X296100D01*
X105100Y203998D02*
X296100D01*
X105100Y203098D02*
X296100D01*
X105100Y202198D02*
X296100D01*
X105100Y201298D02*
X296100D01*
X105100Y200398D02*
X296100D01*
X105100Y199498D02*
X296100D01*
X105100Y198598D02*
X296100D01*
X105100Y197698D02*
X296100D01*
X105100Y196798D02*
X296100D01*
X105100Y195898D02*
X296100D01*
X105100Y194998D02*
X296100D01*
X105100Y194098D02*
X296100D01*
X105100Y193198D02*
X296100D01*
X105100Y192298D02*
X296100D01*
X105100Y191398D02*
X296100D01*
X105100Y190498D02*
X296100D01*
X105100Y189598D02*
X296100D01*
X105100Y188698D02*
X296100D01*
X105100Y187798D02*
X296100D01*
X105100Y186898D02*
X296100D01*
X105100Y185998D02*
X296100D01*
X105100Y185098D02*
X296100D01*
X105100Y184198D02*
X296100D01*
X105100Y183298D02*
X296100D01*
X105100Y182398D02*
X296100D01*
X105100Y181498D02*
X296100D01*
X105100Y180598D02*
X296100D01*
X105100Y179698D02*
X296100D01*
X105100Y178798D02*
X296100D01*
X105100Y177898D02*
X296100D01*
X105100Y176998D02*
X296100D01*
X105100Y176098D02*
X296100D01*
X105100Y175198D02*
X296100D01*
X105100Y174298D02*
X296100D01*
X105100Y173398D02*
X296100D01*
X105100Y172498D02*
X296100D01*
X105100Y171598D02*
X296100D01*
X105100Y170698D02*
X296100D01*
X105100Y169798D02*
X296100D01*
X105100Y168898D02*
X296100D01*
X105100Y167998D02*
X296100D01*
X105100Y167098D02*
X296100D01*
X105100Y166198D02*
X296100D01*
X105100Y165298D02*
X296100D01*
X105100Y164398D02*
X296100D01*
X105100Y163498D02*
X296100D01*
X105100Y162598D02*
X296100D01*
X105100Y161698D02*
X296100D01*
X291641Y160798D02*
X296100D01*
X293732Y159898D02*
X296100D01*
X294713Y158998D02*
X296100D01*
X113331Y340798D02*
X296000D01*
X105301Y264298D02*
X295898D01*
X105100Y160798D02*
X289558D01*
X105100Y150898D02*
X287769D01*
X105100Y159898D02*
X287467D01*
X105100Y151798D02*
X286668D01*
X105100Y158998D02*
X286486D01*
X105100Y152698D02*
X285983D01*
X105100Y158098D02*
X285866D01*
X105100Y153598D02*
X285545D01*
X105100Y157198D02*
X285474D01*
X105100Y154498D02*
X285293D01*
X105100Y156298D02*
X285259D01*
X105100Y155398D02*
X285200D01*
X215800Y224698D02*
X233794D01*
X215800Y225598D02*
X232847D01*
X215800Y226498D02*
X231947D01*
X215800Y227398D02*
X231047D01*
X215800Y228298D02*
X230147D01*
X215800Y229198D02*
X229247D01*
X215800Y230098D02*
X228347D01*
X215800Y230998D02*
X227447D01*
X215800Y231898D02*
X226547D01*
X215800Y232798D02*
X225647D01*
X215800Y233698D02*
X224747D01*
X215800Y234598D02*
X223847D01*
X215800Y235498D02*
X222947D01*
X215800Y236398D02*
X222047D01*
X181605Y263398D02*
X221594D01*
X215779Y237298D02*
X221147D01*
X182505Y262498D02*
X220694D01*
X215444Y238198D02*
X220247D01*
X183405Y261598D02*
X219794D01*
X214260Y239098D02*
X219347D01*
X184305Y260698D02*
X218894D01*
X199800Y239998D02*
X218447D01*
X185205Y259798D02*
X217994D01*
X199800Y240898D02*
X217547D01*
X186105Y258898D02*
X217094D01*
X187005Y257998D02*
X216194D01*
X187905Y257098D02*
X215294D01*
X188805Y256198D02*
X214394D01*
X189705Y255298D02*
X213494D01*
X196139Y254398D02*
X212594D01*
X197024Y253498D02*
X211759D01*
X197386Y252598D02*
X211421D01*
X197434Y251698D02*
X211399D01*
X197661Y250798D02*
X211399D01*
X197777Y249898D02*
X211399D01*
X197777Y248998D02*
X211399D01*
X105100Y213898D02*
X204297D01*
X197777Y248098D02*
X203439D01*
X105100Y214798D02*
X203397D01*
X199763Y239098D02*
X202952D01*
X199800Y233698D02*
X202899D01*
X199800Y232798D02*
X202899D01*
X200105Y231898D02*
X202899D01*
X200940Y230998D02*
X202899D01*
X201278Y230098D02*
X202899D01*
X201240Y229198D02*
X202899D01*
X200790Y228298D02*
X202899D01*
X199902Y227398D02*
X202899D01*
X199002Y226498D02*
X202899D01*
X198102Y225598D02*
X202899D01*
X197202Y224698D02*
X202899D01*
X105100Y223798D02*
X202899D01*
X105100Y222898D02*
X202899D01*
X105100Y215698D02*
X202497D01*
X199800Y234598D02*
X202417D01*
X105100Y221998D02*
X202194D01*
X199686Y238198D02*
X202121D01*
X197843Y247198D02*
X202100D01*
X199800Y241798D02*
X202100D01*
X199800Y242698D02*
X202051D01*
X198867Y246298D02*
X201920D01*
X199800Y235498D02*
X201880D01*
X199501Y245398D02*
X201842D01*
X199800Y243598D02*
X201781D01*
X199800Y237298D02*
X201755D01*
X199800Y236398D02*
X201682D01*
X199790Y244498D02*
X201677D01*
X105100Y216598D02*
X201597D01*
X105100Y221098D02*
X201294D01*
X105100Y217498D02*
X200698D01*
X105100Y220198D02*
X200462D01*
X105100Y218398D02*
X200190D01*
X105100Y219298D02*
X200127D01*
X190605Y254398D02*
X193060D01*
X191508Y253498D02*
X192149D01*
X153155Y224698D02*
X185100D01*
X154102Y225598D02*
X184936D01*
X164902Y236398D02*
X184899D01*
X164002Y235498D02*
X184899D01*
X163102Y234598D02*
X184899D01*
X162202Y233698D02*
X184899D01*
X161302Y232798D02*
X184899D01*
X160402Y231898D02*
X184899D01*
X159502Y230998D02*
X184899D01*
X158602Y230098D02*
X184899D01*
X157702Y229198D02*
X184899D01*
X156802Y228298D02*
X184899D01*
X155902Y227398D02*
X184899D01*
X155002Y226498D02*
X184899D01*
X165802Y237298D02*
X184435D01*
X166702Y238198D02*
X182100D01*
X167602Y239098D02*
X181936D01*
X172102Y243598D02*
X181899D01*
X171202Y242698D02*
X181899D01*
X170302Y241798D02*
X181899D01*
X169402Y240898D02*
X181899D01*
X168502Y239998D02*
X181899D01*
X173002Y244498D02*
X181858D01*
X105100Y275998D02*
X129411D01*
X105100Y284998D02*
X129407D01*
X105100Y276898D02*
X128749D01*
X105100Y284098D02*
X128748D01*
X105100Y283198D02*
X128673D01*
X105100Y282298D02*
X128673D01*
X105100Y281398D02*
X128673D01*
X105100Y280498D02*
X128673D01*
X105100Y279598D02*
X128673D01*
X105100Y278698D02*
X128673D01*
X105100Y277798D02*
X128673D01*
X105100Y330898D02*
X107773D01*
X105100Y331798D02*
X106668D01*
X105225Y332698D02*
X105974D01*
X184300Y240898D02*
X197397D01*
X184342Y239998D02*
X197357D01*
X184300Y241798D02*
X191844D01*
X182176Y247198D02*
X191720D01*
X105100Y248998D02*
X191622D01*
X105100Y248098D02*
X191622D01*
X105100Y249898D02*
X191621D01*
X184100Y246298D02*
X191072D01*
X184300Y242698D02*
X190927D01*
X105100Y250798D02*
X190897D01*
X184263Y245398D02*
X190583D01*
X184300Y243598D02*
X190521D01*
X184300Y244498D02*
X190417D01*
X105100Y251698D02*
X189997D01*
X105100Y252598D02*
X189097D01*
X105100Y253498D02*
X188197D01*
X105100Y254398D02*
X187297D01*
X105100Y255298D02*
X186397D01*
X105100Y256198D02*
X185497D01*
X105100Y257098D02*
X184597D01*
X105100Y257998D02*
X183697D01*
X105100Y258898D02*
X182797D01*
X105100Y259798D02*
X181897D01*
X105100Y260698D02*
X180997D01*
X105199Y261598D02*
X180097D01*
X105100Y247198D02*
X173230D01*
X105100Y246298D02*
X171494D01*
X105100Y245398D02*
X170594D01*
X105100Y244498D02*
X169694D01*
X105100Y243598D02*
X168794D01*
X105100Y242698D02*
X167894D01*
X105100Y241798D02*
X166994D01*
X105100Y240898D02*
X166094D01*
X105100Y239998D02*
X165194D01*
X105100Y239098D02*
X164294D01*
X105100Y238198D02*
X163394D01*
X105100Y237298D02*
X162494D01*
X105100Y236398D02*
X161594D01*
X105100Y235498D02*
X160694D01*
X105100Y234598D02*
X159794D01*
X105100Y233698D02*
X158894D01*
X105100Y232798D02*
X157994D01*
X105100Y231898D02*
X157094D01*
X105100Y230998D02*
X156194D01*
X105100Y230098D02*
X155294D01*
X105100Y229198D02*
X154394D01*
X105100Y228298D02*
X153494D01*
X105100Y227398D02*
X152594D01*
X187300Y229598D02*
X198715D01*
X187300Y230498D02*
X198197D01*
X187300Y228698D02*
X197894D01*
X187300Y231398D02*
X197553D01*
X187300Y236798D02*
X197399D01*
X187300Y235898D02*
X197399D01*
X187300Y234998D02*
X197399D01*
X187300Y234098D02*
X197399D01*
X187300Y233198D02*
X197399D01*
X187300Y232298D02*
X197399D01*
X187300Y227798D02*
X196994D01*
X187300Y226898D02*
X196094D01*
X222202Y260698D02*
X296100D01*
X221302Y259798D02*
X296100D01*
X220402Y258898D02*
X296100D01*
X219502Y257998D02*
X296100D01*
X218602Y257098D02*
X296100D01*
X217702Y256198D02*
X296100D01*
X216802Y255298D02*
X296100D01*
X215902Y254398D02*
X296100D01*
X215002Y253498D02*
X296100D01*
X214102Y252598D02*
X296100D01*
X213800Y251698D02*
X296100D01*
X213800Y250798D02*
X296100D01*
X213800Y249898D02*
X296100D01*
X213800Y248998D02*
X296100D01*
X213800Y248098D02*
X296100D01*
X213648Y247198D02*
X296100D01*
X213600Y246298D02*
X296100D01*
X204309Y245398D02*
X296100D01*
X204300Y244498D02*
X296100D01*
X217802Y243598D02*
X296100D01*
X219055Y242698D02*
X296100D01*
X219955Y241798D02*
X296100D01*
X220855Y240898D02*
X296100D01*
X221755Y239998D02*
X296100D01*
X222655Y239098D02*
X296100D01*
X223555Y238198D02*
X296100D01*
X224455Y237298D02*
X296100D01*
X225355Y236398D02*
X296100D01*
X226255Y235498D02*
X296100D01*
X227155Y234598D02*
X296100D01*
X228055Y233698D02*
X296100D01*
X228955Y232798D02*
X296100D01*
X229855Y231898D02*
X296100D01*
X230755Y230998D02*
X296100D01*
X231655Y230098D02*
X296100D01*
X232555Y229198D02*
X296100D01*
X233455Y228298D02*
X296100D01*
X234355Y227398D02*
X296100D01*
X223102Y261598D02*
X296000D01*
X100600Y345500D02*
X300600D01*
Y145500*
X100600*
Y345500*
X183100Y115750D02*
Y110500D01*
X185281*
X186918Y114750D02*
X187281Y115000D01*
X187281D02*
X187827Y115750D01*
Y110500*
X189463Y112750D02*
X192736D01*
X197100Y114500D02*
X196918Y115000D01*
X196554Y115500*
X196554D02*
X196190Y115750D01*
X196190D02*
X195463D01*
X195463D02*
X195100Y115500D01*
X194736Y115000*
X194554Y114500*
X194554D02*
X194372Y113750D01*
X194372D02*
Y112500D01*
X194372D02*
X194554Y111750D01*
X194554D02*
X194736Y111250D01*
X195100Y110750*
X195463Y110500*
X195463D02*
X196190D01*
X196190D02*
X196554Y110750D01*
X196554D02*
X196918Y111250D01*
X197100Y111750*
X199827Y115750D02*
X199463Y115500D01*
X199463D02*
X199100Y115000D01*
X198918Y114500*
X198736Y113750*
Y112500*
X198918Y111750*
X199100Y111250*
X199463Y110750*
X199463D02*
X199827Y110500D01*
X200554*
X200554D02*
X200918Y110750D01*
X201281Y111250*
X201281D02*
X201463Y111750D01*
X201463D02*
X201645Y112500D01*
Y113750*
X201463Y114500*
X201463D02*
X201281Y115000D01*
X201281D02*
X200918Y115500D01*
X200554Y115750*
X200554D02*
X199827D01*
X203281D02*
Y110500D01*
Y115750D02*
X204736Y110500D01*
X206190Y115750D02*
X204736Y110500D01*
X206190Y115750D02*
Y110500D01*
X207827Y115750D02*
Y110500D01*
Y115750D02*
X209463D01*
X209463D02*
X210009Y115500D01*
X210190Y115250*
X210190D02*
X210372Y114750D01*
X210372D02*
Y114000D01*
X210372D02*
X210190Y113500D01*
X210190D02*
X210009Y113250D01*
X209463Y113000*
X209463D02*
X207827D01*
X213100Y115750D02*
X212736Y115500D01*
X212372Y115000*
X212372D02*
X212190Y114500D01*
X212190D02*
X212009Y113750D01*
Y112500*
X212190Y111750*
X212190D02*
X212372Y111250D01*
X212372D02*
X212736Y110750D01*
X213100Y110500*
X213827*
X214190Y110750*
X214190D02*
X214554Y111250D01*
X214554D02*
X214736Y111750D01*
X214918Y112500*
Y113750*
X214736Y114500*
X214554Y115000*
X214554D02*
X214190Y115500D01*
X214190D02*
X213827Y115750D01*
X213100*
X216554D02*
Y110500D01*
Y115750D02*
X219100Y110500D01*
Y115750D02*
Y110500D01*
X220736Y115750D02*
Y110500D01*
Y115750D02*
X223100D01*
X220736Y113250D02*
X222190D01*
X220736Y110500D02*
X223100D01*
X224736Y115750D02*
Y110500D01*
Y115750D02*
X227281Y110500D01*
Y115750D02*
Y110500D01*
X230190Y115750D02*
Y110500D01*
X228918Y115750D02*
X231463D01*
X239827Y115000D02*
X239463Y115500D01*
X239463D02*
X238918Y115750D01*
X238190*
X238190D02*
X237645Y115500D01*
X237281Y115000*
X237281D02*
Y114500D01*
X237281D02*
X237463Y114000D01*
X237463D02*
X237645Y113750D01*
X238009Y113500*
X239100Y113000*
X239463Y112750*
X239463D02*
X239645Y112500D01*
X239827Y112000*
Y111250*
X239463Y110750*
X239463D02*
X238918Y110500D01*
X238190*
X238190D02*
X237645Y110750D01*
X237281Y111250*
X241463Y115750D02*
Y110500D01*
X243100Y115750D02*
Y110500D01*
Y115750D02*
X244372D01*
X244372D02*
X244918Y115500D01*
X245281Y115000*
X245281D02*
X245463Y114500D01*
X245463D02*
X245645Y113750D01*
Y112500*
X245463Y111750*
X245463D02*
X245281Y111250D01*
X245281D02*
X244918Y110750D01*
X244372Y110500*
X244372D02*
X243100D01*
X247281Y115750D02*
Y110500D01*
Y115750D02*
X249645D01*
X247281Y113250D02*
X248736D01*
X247281Y110500D02*
X249645D01*
X100600Y120500D02*
X246600D01*
X100600Y116406D02*
Y110500D01*
Y116406D02*
X102031D01*
X102031D02*
X102645Y116125D01*
X103054Y115562*
X103054D02*
X103259Y115000D01*
X103463Y114156*
X103463D02*
Y112750D01*
X103463D02*
X103259Y111906D01*
X103054Y111343*
X103054D02*
X102645Y110781D01*
X102031Y110500*
X102031D02*
X100600D01*
X108372Y115000D02*
X108168Y115562D01*
X108168D02*
X107759Y116125D01*
X107350Y116406*
X106531*
X106531D02*
X106122Y116125D01*
X106122D02*
X105713Y115562D01*
X105713D02*
X105509Y115000D01*
X105304Y114156*
X105304D02*
Y112750D01*
X105304D02*
X105509Y111906D01*
X105713Y111343*
X105713D02*
X106122Y110781D01*
X106122D02*
X106531Y110500D01*
X106531D02*
X107350D01*
X107759Y110781*
X108168Y111343*
X108168D02*
X108372Y111906D01*
X111236Y116406D02*
X110622Y116125D01*
X110622D02*
X110418Y115562D01*
X110418D02*
Y115000D01*
X110622Y114437*
X110622D02*
X111031Y114156D01*
X111031D02*
X111850Y113875D01*
X112463Y113593*
X112463D02*
X112872Y113031D01*
X112872D02*
X113077Y112468D01*
X113077D02*
Y111625D01*
X112872Y111062*
X112872D02*
X112668Y110781D01*
X112054Y110500*
X112054D02*
X111236D01*
X110622Y110781*
X110622D02*
X110418Y111062D01*
X110418D02*
X110213Y111625D01*
X110213D02*
Y112468D01*
X110213D02*
X110418Y113031D01*
X110827Y113593*
X110827D02*
X111440Y113875D01*
X111440D02*
X112259Y114156D01*
X112668Y114437*
X112668D02*
X112872Y115000D01*
X112872D02*
Y115562D01*
X112872D02*
X112668Y116125D01*
X112054Y116406*
X112054D02*
X111236D01*
X117781D02*
X115736Y110500D01*
X114918Y116406D02*
X117781D01*
X122486D02*
X120440Y110500D01*
X119622Y116406D02*
X122486D01*
X125963D02*
X124327Y110500D01*
X125963Y116406D02*
X127600Y110500D01*
X124940Y112468D02*
X126986D01*
X134145Y116406D02*
Y110500D01*
Y116406D02*
X135986D01*
X136600Y116125*
X136804Y115843*
X136804D02*
X137009Y115281D01*
Y114718*
X137009D02*
X136804Y114156D01*
X136804D02*
X136600Y113875D01*
X135986Y113593*
X135986D02*
X134145D01*
X135577D02*
X137009Y110500D01*
X138850Y116406D02*
Y110500D01*
Y116406D02*
X141509D01*
X138850Y113593D02*
X140486D01*
X138850Y110500D02*
X141509D01*
X143350Y116406D02*
X144986Y110500D01*
X146622Y116406D02*
X144986Y110500D01*
X153372Y115000D02*
Y115281D01*
X153372D02*
X153577Y115843D01*
X153577D02*
X153781Y116125D01*
X153781D02*
X154190Y116406D01*
X154190D02*
X155009D01*
X155418Y116125*
X155622Y115843*
X155622D02*
X155827Y115281D01*
Y114718*
X155827D02*
X155622Y114156D01*
X155622D02*
X155213Y113312D01*
X155213D02*
X153168Y110500D01*
X156031*
X101827Y106406D02*
X101213Y106125D01*
X101213D02*
X100804Y105281D01*
X100804D02*
X100600Y103875D01*
Y103031*
X100804Y101625*
X100804D02*
X101213Y100781D01*
X101213D02*
X101827Y100500D01*
X102236*
X102850Y100781*
X103259Y101625*
X103463Y103031*
X103463D02*
Y103875D01*
X103463D02*
X103259Y105281D01*
X102850Y106125*
X102236Y106406*
X101827*
X106327D02*
X105713Y106125D01*
X105713D02*
X105509Y105562D01*
X105509D02*
Y105000D01*
X105713Y104437*
X105713D02*
X106122Y104156D01*
X106122D02*
X106940Y103875D01*
X106940D02*
X107554Y103593D01*
X107554D02*
X107963Y103031D01*
X107963D02*
X108168Y102468D01*
X108168D02*
Y101625D01*
X107963Y101062*
X107963D02*
X107759Y100781D01*
X107145Y100500*
X106327*
X105713Y100781*
X105713D02*
X105509Y101062D01*
X105509D02*
X105304Y101625D01*
X105304D02*
Y102468D01*
X105304D02*
X105509Y103031D01*
X105918Y103593*
X105918D02*
X106531Y103875D01*
X106531D02*
X107350Y104156D01*
X107759Y104437*
X107759D02*
X107963Y105000D01*
X107963D02*
Y105562D01*
X107963D02*
X107759Y106125D01*
X107145Y106406*
X106327*
X113690Y107531D02*
X110009Y98531D01*
X115531Y105281D02*
X115940Y105562D01*
X115940D02*
X116554Y106406D01*
X116554D02*
Y100500D01*
X121054Y106406D02*
X119009D01*
X118804Y103875*
X118804D02*
X119009Y104156D01*
X119622Y104437*
X119622D02*
X120236D01*
X120236D02*
X120850Y104156D01*
X121259Y103593*
X121259D02*
X121463Y102750D01*
X121463D02*
X121259Y102187D01*
X121259D02*
X121054Y101343D01*
X121054D02*
X120645Y100781D01*
X120031Y100500*
X120031D02*
X119418D01*
X118804Y100781*
X118804D02*
X118600Y101062D01*
X118600D02*
X118395Y101625D01*
X126986Y107531D02*
X123304Y98531D01*
X130054Y106406D02*
X129440Y106125D01*
X129440D02*
X129031Y105281D01*
X129031D02*
X128827Y103875D01*
Y103031*
X129031Y101625*
X129031D02*
X129440Y100781D01*
X129440D02*
X130054Y100500D01*
X130054D02*
X130463D01*
X130463D02*
X131077Y100781D01*
X131486Y101625*
X131690Y103031*
X131690D02*
Y103875D01*
X131690D02*
X131486Y105281D01*
X131077Y106125*
X130463Y106406*
X130463D02*
X130054D01*
X136190D02*
X134145D01*
X133940Y103875*
X133940D02*
X134145Y104156D01*
X134759Y104437*
X134759D02*
X135372D01*
X135372D02*
X135986Y104156D01*
X136395Y103593*
X136395D02*
X136600Y102750D01*
X136395Y102187*
X136395D02*
X136190Y101343D01*
X136190D02*
X135781Y100781D01*
X135781D02*
X135168Y100500D01*
X134554*
X134554D02*
X133940Y100781D01*
X133940D02*
X133736Y101062D01*
X133736D02*
X133531Y101625D01*
G54D22*
X202100Y240500D02*
X206229D01*
X206111Y218988D02*
Y236484D01*
X206111D02*
X206229Y236602D01*
X194970D02*
Y230129D01*
X194970D02*
X195088Y230011D01*
X206229Y236602D02*
X206332Y236500D01*
X211600*
X212600Y235500*
X187800Y242500D02*
X188100D01*
X190100Y240500*
X194970*
X187800Y242500D02*
X189500D01*
Y249000*
X212600Y244320D02*
Y244500D01*
X194600Y248900D02*
Y244767D01*
X194600D02*
X194970Y244397D01*
X194600Y248900D02*
X194700Y249000D01*
X194600Y252000D02*
X194700D01*
Y249000*
X203100Y250000D02*
X207900D01*
X217300D02*
X218100D01*
X206229Y244397D02*
X212600D01*
X212600D02*
Y244500D01*
X100600Y129562D02*
Y123000D01*
X103327*
X105372Y129562D02*
Y123000D01*
X107418Y129562D02*
Y123000D01*
Y129562D02*
X110600Y123000D01*
Y129562D02*
Y123000D01*
X112645Y129562D02*
Y123000D01*
Y129562D02*
X115600D01*
X112645Y126437D02*
X114463D01*
X112645Y123000D02*
X115600D01*
X119463Y129562D02*
X117645Y123000D01*
X119463Y129562D02*
X121281Y123000D01*
X118327Y125187D02*
X120600D01*
X123327Y129562D02*
Y123000D01*
Y129562D02*
X125372D01*
X125372D02*
X126054Y129250D01*
X126054D02*
X126281Y128937D01*
X126281D02*
X126509Y128312D01*
X126509D02*
Y127687D01*
X126509D02*
X126281Y127062D01*
X126281D02*
X126054Y126750D01*
X126054D02*
X125372Y126437D01*
X125372D02*
X123327D01*
X124918D02*
X126509Y123000D01*
X135372Y129562D02*
Y123000D01*
X133781Y129562D02*
X136963D01*
X139009D02*
Y123000D01*
Y129562D02*
X141963D01*
X139009Y126437D02*
X140827D01*
X139009Y123000D02*
X141963D01*
X147418Y128000D02*
X147190Y128625D01*
X147190D02*
X146736Y129250D01*
X146281Y129562*
X146281D02*
X145372D01*
X145372D02*
X144918Y129250D01*
X144463Y128625*
X144463D02*
X144236Y128000D01*
X144009Y127062*
X144009D02*
Y125500D01*
X144236Y124562*
X144236D02*
X144463Y123937D01*
X144463D02*
X144918Y123312D01*
X144918D02*
X145372Y123000D01*
X145372D02*
X146281D01*
X146281D02*
X146736Y123312D01*
X146736D02*
X147190Y123937D01*
X147190D02*
X147418Y124562D01*
X149463Y129562D02*
Y123000D01*
X152645Y129562D02*
Y123000D01*
X149463Y126437D02*
X152645D01*
X154690Y129562D02*
Y123000D01*
Y129562D02*
X157872Y123000D01*
Y129562D02*
Y123000D01*
X161281Y129562D02*
X160827Y129250D01*
X160372Y128625*
X160372D02*
X160145Y128000D01*
X159918Y127062*
X159918D02*
Y125500D01*
X160145Y124562*
X160145D02*
X160372Y123937D01*
X160372D02*
X160827Y123312D01*
X160827D02*
X161281Y123000D01*
X161281D02*
X162190D01*
X162190D02*
X162645Y123312D01*
X162645D02*
X163100Y123937D01*
X163100D02*
X163327Y124562D01*
X163327D02*
X163554Y125500D01*
X163554D02*
Y127062D01*
X163554D02*
X163327Y128000D01*
X163100Y128625*
X162645Y129250*
X162190Y129562*
X162190D02*
X161281D01*
X165600D02*
Y123000D01*
X168327*
X171736Y129562D02*
X171281Y129250D01*
X171281D02*
X170827Y128625D01*
X170600Y128000*
X170372Y127062*
X170372D02*
Y125500D01*
X170372D02*
X170600Y124562D01*
X170600D02*
X170827Y123937D01*
X170827D02*
X171281Y123312D01*
X171281D02*
X171736Y123000D01*
X172645*
X173100Y123312*
X173100D02*
X173554Y123937D01*
X173554D02*
X173781Y124562D01*
X173781D02*
X174009Y125500D01*
Y127062*
X174009D02*
X173781Y128000D01*
X173781D02*
X173554Y128625D01*
X173554D02*
X173100Y129250D01*
X172645Y129562*
X172645D02*
X171736D01*
X179463Y128000D02*
X179236Y128625D01*
X178781Y129250*
X178781D02*
X178327Y129562D01*
X178327D02*
X177418D01*
X177418D02*
X176963Y129250D01*
X176963D02*
X176509Y128625D01*
X176281Y128000*
X176281D02*
X176054Y127062D01*
X176054D02*
Y125500D01*
X176054D02*
X176281Y124562D01*
X176281D02*
X176509Y123937D01*
X176509D02*
X176963Y123312D01*
X176963D02*
X177418Y123000D01*
X178327*
X178781Y123312*
X178781D02*
X179236Y123937D01*
X179236D02*
X179463Y124562D01*
X179463D02*
Y125500D01*
X178327D02*
X179463D01*
X181509Y129562D02*
X183327Y126437D01*
X183327D02*
Y123000D01*
X185145Y129562D02*
X183327Y126437D01*
X195827Y128000D02*
X195600Y128625D01*
X195145Y129250*
X194690Y129562*
X194690D02*
X193781D01*
X193781D02*
X193327Y129250D01*
X192872Y128625*
X192872D02*
X192645Y128000D01*
X192418Y127062*
X192418D02*
Y125500D01*
X192645Y124562*
X192645D02*
X192872Y123937D01*
X192872D02*
X193327Y123312D01*
X193327D02*
X193781Y123000D01*
X193781D02*
X194690D01*
X194690D02*
X195145Y123312D01*
X195145D02*
X195600Y123937D01*
X195600D02*
X195827Y124562D01*
X199236Y129562D02*
X198781Y129250D01*
X198781D02*
X198327Y128625D01*
X198100Y128000*
X197872Y127062*
X197872D02*
Y125500D01*
X197872D02*
X198100Y124562D01*
X198100D02*
X198327Y123937D01*
X198327D02*
X198781Y123312D01*
X198781D02*
X199236Y123000D01*
X200145*
X200600Y123312*
X200600D02*
X201054Y123937D01*
X201054D02*
X201281Y124562D01*
X201281D02*
X201509Y125500D01*
Y127062*
X201509D02*
X201281Y128000D01*
X201281D02*
X201054Y128625D01*
X201054D02*
X200600Y129250D01*
X200145Y129562*
X200145D02*
X199236D01*
X203554D02*
Y123000D01*
Y129562D02*
X205600D01*
X205600D02*
X206281Y129250D01*
X206281D02*
X206509Y128937D01*
X206509D02*
X206736Y128312D01*
X206736D02*
Y127687D01*
X206736D02*
X206509Y127062D01*
X206509D02*
X206281Y126750D01*
X206281D02*
X205600Y126437D01*
X205600D02*
X203554D01*
X205145D02*
X206736Y123000D01*
X208781Y129562D02*
Y123000D01*
Y129562D02*
X210827D01*
X210827D02*
X211509Y129250D01*
X211736Y128937*
X211736D02*
X211963Y128312D01*
X211963D02*
Y127375D01*
X211963D02*
X211736Y126750D01*
X211509Y126437*
X211509D02*
X210827Y126125D01*
X208781*
X215372Y129562D02*
X214918Y129250D01*
X214463Y128625*
X214463D02*
X214236Y128000D01*
X214009Y127062*
X214009D02*
Y125500D01*
X214236Y124562*
X214236D02*
X214463Y123937D01*
X214463D02*
X214918Y123312D01*
X214918D02*
X215372Y123000D01*
X215372D02*
X216281D01*
X216281D02*
X216736Y123312D01*
X216736D02*
X217190Y123937D01*
X217190D02*
X217418Y124562D01*
X217418D02*
X217645Y125500D01*
Y127062*
X217645D02*
X217418Y128000D01*
X217190Y128625*
X217190D02*
X216736Y129250D01*
X216281Y129562*
X216281D02*
X215372D01*
X219690D02*
Y123000D01*
Y129562D02*
X221736D01*
X221736D02*
X222418Y129250D01*
X222645Y128937*
X222645D02*
X222872Y128312D01*
X222872D02*
Y127687D01*
X222872D02*
X222645Y127062D01*
X222645D02*
X222418Y126750D01*
X221736Y126437*
X221736D02*
X219690D01*
X221281D02*
X222872Y123000D01*
X226736Y129562D02*
X224918Y123000D01*
X226736Y129562D02*
X228554Y123000D01*
X225600Y125187D02*
X227872D01*
X232190Y129562D02*
Y123000D01*
X230600Y129562D02*
X233781D01*
X235827D02*
Y123000D01*
X239236Y129562D02*
X238781Y129250D01*
X238781D02*
X238327Y128625D01*
X238100Y128000*
X237872Y127062*
X237872D02*
Y125500D01*
X237872D02*
X238100Y124562D01*
X238100D02*
X238327Y123937D01*
X238327D02*
X238781Y123312D01*
X238781D02*
X239236Y123000D01*
X240145*
X240600Y123312*
X240600D02*
X241054Y123937D01*
X241054D02*
X241281Y124562D01*
X241281D02*
X241509Y125500D01*
Y127062*
X241509D02*
X241281Y128000D01*
X241281D02*
X241054Y128625D01*
X241054D02*
X240600Y129250D01*
X240145Y129562*
X240145D02*
X239236D01*
X243554D02*
Y123000D01*
Y129562D02*
X246736Y123000D01*
Y129562D02*
Y123000D01*
G54D64*
X133474Y280500D03*
G54D65*
X125600D03*
X117726D03*
G54D72*
X202100Y240500D03*
X194600Y252000D03*
X203100Y250000D03*
G54D78*
X120600Y245500D03*
Y205500D03*
X280600Y245500D03*
Y205500D03*
G54D84*
Y228820D03*
Y222180D03*
G54D85*
X206229Y236602D03*
Y244397D03*
X194970D03*
Y236602D03*
G54D86*
X206229Y240500D03*
X194970D03*
G54D87*
X212600Y244500D03*
Y235500D03*
G54D88*
X189500Y249000D03*
X194700D03*
G54D89*
X217300Y250000D03*
X207900D03*
X187800Y242500D03*
X178400D03*
G74*
X0Y0D02*
M02*
